<svg width="100%" height="100%" viewBox="0 0 41 40" fill="none" xmlns="http://www.w3.org/2000/svg">
<g clip-path="url(#clip0_8409_247)">
<path d="M39.4787 27.8888L39.107 27.7509C36.9505 26.9505 34.5783 26.07 32.1321 25.6789C32.2269 25.0685 32.2753 24.4482 32.2753 23.8314C32.2753 17.1973 26.8781 11.8001 20.2441 11.8001C13.61 11.8001 8.21281 17.1973 8.21281 23.8314C8.21281 24.446 8.26102 25.0643 8.35516 25.6723C5.8532 26.0632 3.45289 26.9677 1.11281 27.8497L1.00305 27.891C0.397424 28.1192 0.0914863 28.7953 0.319768 29.4009C0.547971 30.0065 1.22399 30.3125 1.82961 30.0842L1.93945 30.0428C4.97797 28.8975 7.84781 27.8157 10.8302 27.8157C12.2323 27.8157 13.6357 28.3479 15.1216 28.9114C16.7395 29.525 18.4124 30.1594 20.244 30.1594C22.0755 30.1594 23.7485 29.525 25.3664 28.9114C26.8523 28.3478 28.2557 27.8157 29.6578 27.8157C32.5462 27.8157 35.4669 28.8996 38.2914 29.948L38.6646 30.0864C38.7988 30.1361 38.9363 30.1597 39.0715 30.1597C39.5477 30.1597 39.9955 29.8673 40.1705 29.3946C40.3954 28.7878 40.0856 28.1135 39.4787 27.8888ZM24.5353 26.72C23.0495 27.2835 21.6461 27.8157 20.244 27.8157C18.8419 27.8157 17.4384 27.2835 15.9527 26.72C14.3348 26.1064 12.6617 25.472 10.8302 25.472C10.7851 25.472 10.7402 25.4731 10.6952 25.4735C10.6938 25.4636 10.6934 25.4539 10.6917 25.4441C10.602 24.9128 10.5566 24.3702 10.5566 23.8314C10.5566 18.4896 14.9023 14.1439 20.2441 14.1439C25.5858 14.1439 29.9316 18.4896 29.9316 23.8314C29.9316 24.38 29.8843 24.9325 29.7913 25.4735C29.7469 25.473 29.7024 25.472 29.658 25.472C27.8262 25.472 26.1533 26.1064 24.5353 26.72Z" fill="currentColor"/>
<path d="M1.41602 25.0032H3.83789C4.48508 25.0032 5.00977 24.4785 5.00977 23.8314C5.00977 23.1842 4.48508 22.6595 3.83789 22.6595H1.41602C0.768828 22.6595 0.244141 23.1842 0.244141 23.8314C0.244141 24.4785 0.768828 25.0032 1.41602 25.0032Z" fill="currentColor"/>
<path d="M3.35221 15.4324L5.44963 16.6433C5.63417 16.7499 5.83565 16.8005 6.03448 16.8005C6.43948 16.8005 6.83338 16.5903 7.05042 16.2144C7.37401 15.6539 7.18198 14.9372 6.62151 14.6136L4.52409 13.4027C3.96346 13.0789 3.2469 13.2711 2.92331 13.8316C2.59971 14.3921 2.79174 15.1088 3.35221 15.4324Z" fill="currentColor"/>
<path d="M11.0263 10.2096C11.2434 10.5855 11.6373 10.7957 12.0423 10.7957C12.241 10.7957 12.4426 10.7451 12.6271 10.6385C13.1876 10.3149 13.3796 9.59827 13.056 9.03773L11.8451 6.9403C11.5215 6.37991 10.8049 6.18773 10.2443 6.5114C9.68383 6.83499 9.4918 7.55163 9.8154 8.11218L11.0263 10.2096Z" fill="currentColor"/>
<path d="M20.2441 8.59699C20.8913 8.59699 21.416 8.0723 21.416 7.42511V5.00324C21.416 4.35605 20.8913 3.83136 20.2441 3.83136C19.597 3.83136 19.0723 4.35605 19.0723 5.00324V7.42511C19.0723 8.0723 19.597 8.59699 20.2441 8.59699Z" fill="currentColor"/>
<path d="M27.8615 10.6385C28.046 10.7451 28.2475 10.7957 28.4463 10.7957C28.8513 10.7957 29.2452 10.5856 29.4623 10.2096L30.6732 8.1122C30.9968 7.55173 30.8048 6.83501 30.2443 6.51142C29.6837 6.18774 28.967 6.37985 28.6435 6.94032L27.4326 9.03774C27.109 9.59821 27.301 10.3149 27.8615 10.6385Z" fill="currentColor"/>
<path d="M34.4536 16.8005C34.6524 16.8005 34.854 16.7498 35.0385 16.6433L37.1359 15.4323C37.6964 15.1087 37.8884 14.392 37.5648 13.8316C37.2412 13.2711 36.5246 13.079 35.964 13.4027L33.8666 14.6136C33.3061 14.9372 33.1141 15.6539 33.4377 16.2144C33.6547 16.5903 34.0486 16.8005 34.4536 16.8005Z" fill="currentColor"/>
<path d="M35.4785 23.8314C35.4785 24.4785 36.0032 25.0032 36.6504 25.0032H39.0723C39.7195 25.0032 40.2441 24.4785 40.2441 23.8314C40.2441 23.1842 39.7195 22.6595 39.0723 22.6595H36.6504C36.0032 22.6595 35.4785 23.1841 35.4785 23.8314Z" fill="currentColor"/>
<path d="M33.0054 33.9017L32.9775 33.8911C31.2751 33.2425 28.7025 32.2624 26.4163 32.2624C25.159 32.2624 24.0167 32.6988 22.9121 33.1208C21.9644 33.4829 21.0693 33.8249 20.2444 33.8249C19.4196 33.8249 18.5244 33.4829 17.5768 33.1208C16.4722 32.6988 15.33 32.2624 14.0726 32.2624C12.1099 32.2624 10.8449 32.7116 8.74897 33.4558C8.37358 33.5891 7.96615 33.7338 7.51686 33.8896C6.90537 34.1015 6.58147 34.7691 6.7935 35.3806C6.96139 35.865 7.41522 36.169 7.90069 36.169C8.02795 36.169 8.15756 36.148 8.28459 36.104C8.73998 35.9461 9.15287 35.7995 9.53326 35.6644C11.5797 34.9378 12.5137 34.6061 14.0726 34.6061C14.8976 34.6061 15.7926 34.9481 16.7403 35.3102C17.8449 35.7322 18.9871 36.1686 20.2445 36.1686C21.5019 36.1686 22.6441 35.7322 23.7487 35.3102C24.6964 34.9481 25.5915 34.6061 26.4164 34.6061C28.2712 34.6061 30.6013 35.4938 32.1432 36.0812L32.1711 36.0918C32.7758 36.3223 33.4529 36.0187 33.6833 35.414C33.9137 34.8092 33.6102 34.1321 33.0054 33.9017Z" fill="currentColor"/>
</g>
</svg>
