<svg width="100%" height="100%" viewBox="0 0 32 32" fill="none" xmlns="http://www.w3.org/2000/svg">
<g clip-path="url(#clip0_8409_315)">
<path d="M29.1882 3.75C29.706 3.75 30.1257 3.33027 30.1257 2.8125C30.1257 2.29473 29.706 1.875 29.1882 1.875C28.6705 1.875 28.2507 2.29473 28.2507 2.8125C28.2507 3.33027 28.6705 3.75 29.1882 3.75Z" fill="currentColor"/>
<path d="M16.0632 32C23.0632 32 29.014 27.4242 31.1519 21.1028C31.2854 20.7078 31.1422 20.2722 30.8003 20.0336C30.4584 19.7951 30.0001 19.8109 29.6755 20.0725C27.6542 21.7014 25.2164 22.5625 22.6257 22.5625C16.388 22.5625 11.3132 17.5158 11.3132 11.3125C11.3132 7.47681 13.356 3.80681 16.6445 1.73481C16.9972 1.51256 17.1607 1.08419 17.0459 0.683438C16.9333 0.290375 16.5794 0.0165625 16.1725 0.0045625C16.1503 0.002875 16.1107 0 16.0632 0C7.25861 0 0.000732422 7.18481 0.000732422 16C0.000732422 24.812 7.25498 32 16.0632 32ZM13.161 2.17206C10.76 4.663 9.43823 7.94613 9.43823 11.3125C9.43823 18.5496 15.3541 24.4375 22.6257 24.4375C24.5297 24.4375 26.4096 24.0164 28.1253 23.2238C25.6199 27.4438 21.0724 30.125 16.0632 30.125C8.24023 30.125 1.87573 23.7886 1.87573 16C1.87573 9.20119 6.72479 3.509 13.161 2.17206Z" fill="currentColor"/>
<path d="M17.9382 7.5C19.4627 7.5 20.7507 8.81656 20.7507 10.375C20.7507 10.8927 21.1705 11.3125 21.6882 11.3125C22.206 11.3125 22.6257 10.8927 22.6257 10.375C22.6257 8.81656 23.9137 7.5 25.4382 7.5C25.956 7.5 26.3757 7.08025 26.3757 6.5625C26.3757 6.04475 25.956 5.625 25.4382 5.625C23.8874 5.625 22.6257 4.36331 22.6257 2.8125C22.6257 2.29475 22.206 1.875 21.6882 1.875C21.1705 1.875 20.7507 2.29475 20.7507 2.8125C20.7507 4.36331 19.489 5.625 17.9382 5.625C17.4205 5.625 17.0007 6.04475 17.0007 6.5625C17.0007 7.08025 17.4205 7.5 17.9382 7.5ZM21.6882 5.62175C21.9589 5.98212 22.2802 6.30244 22.6415 6.57194C22.2801 6.8475 21.9625 7.16994 21.6882 7.53944C21.414 7.17 21.0965 6.84763 20.7349 6.57194C21.0963 6.30244 21.4175 5.98212 21.6882 5.62175Z" fill="currentColor"/>
<path d="M31.0632 11.3125C31.581 11.3125 32.0007 10.8928 32.0007 10.375C32.0007 9.85723 31.581 9.4375 31.0632 9.4375C30.5455 9.4375 30.1257 9.85723 30.1257 10.375C30.1257 10.8928 30.5455 11.3125 31.0632 11.3125Z" fill="currentColor"/>
</g>
</svg>
