<svg width="100%" height="100%" viewBox="0 0 155 183" fill="none" xmlns="http://www.w3.org/2000/svg">
<g filter="url(#filter0_di_9067_3312)">
<path d="M41.3705 82.5523C43.2952 85.7823 45.2199 89.0122 47.1446 92.2422C44.9504 90.4033 43.013 88.3216 41.35 86.0032C41.1116 86.1573 41.183 86.2733 41.245 86.3823C46.5057 95.6345 53.1943 103.571 62.3527 109.216C64.5113 110.546 66.8185 111.583 69.2535 112.303C69.8811 112.488 70.1993 112.778 70.2998 113.449C70.4184 114.242 70.6537 115.023 70.8932 115.792C71.7498 118.543 73.5922 120.22 76.4196 120.822C82.0504 122.022 87.742 122.918 93.3486 124.24C101.573 126.179 109.577 128.725 117.063 132.722C120.856 134.748 124.108 137.341 125.96 141.365C129.089 148.167 127.146 155.104 120.948 159.292C120.847 159.36 120.758 159.445 120.463 159.686C121.988 159.686 123.284 159.687 124.579 159.686C126.131 159.685 127.682 159.682 129.234 159.68C131.63 159.678 133.827 160.487 135.789 162.109C135.499 162.399 135.15 162.219 134.85 162.219C113.161 162.238 91.4724 162.266 69.7838 162.242C64.8466 162.237 66.1969 162.866 62.9871 159.01C59.6644 155.018 56.6752 150.768 53.6031 146.584C52.4882 145.065 51.2145 143.73 49.3815 143.101C46.4412 142.092 43.7632 142.922 41.5196 145.511C40.4998 146.687 39.4579 147.799 37.9729 148.445C37.18 148.79 36.761 148.581 36.2871 147.975C34.2975 145.428 33.116 142.505 32.2648 139.431C30.5348 133.183 29.8976 126.793 29.7858 120.33C29.6136 110.371 30.0714 100.443 30.9586 90.5243C31.4785 84.7125 32.0209 78.9114 33.4721 73.2444C34.8704 67.7839 36.7814 62.5493 40.6183 58.2444C41.0885 57.7168 41.5459 57.1461 42.1142 56.7434C44.3374 55.1676 45.7679 53.0025 46.8416 50.5659C47.1778 49.803 47.5565 49.7477 48.2913 50.1007C53.2397 52.478 58.2079 54.8141 63.1811 57.1392C63.6929 57.3785 63.7999 57.6098 63.5466 58.108C62.3586 60.4453 62.5819 62.6426 63.7775 65.0041C65.5009 68.4078 66.4024 72.1382 67.2314 75.8523C67.6216 77.6003 68.2612 79.1642 69.3574 80.5822C71.0677 82.7945 72.6344 85.1203 74.4989 87.2105C76.1807 89.0958 78.5812 89.4775 80.6973 88.0878C83.5134 86.2384 86.2477 84.2643 89.0222 82.3512C91.0751 80.9358 93.1387 79.5358 95.1911 78.1198C95.518 77.8943 95.7537 77.7606 96.1358 78.1058C100.077 81.6652 103.755 85.4549 106.641 89.9477C107.114 90.6844 107.542 91.4506 107.838 92.2814C108.447 93.9916 108.133 95.0986 106.644 96.1521C104.633 97.5753 102.462 98.7431 100.334 99.9759C94.2676 103.489 88.1533 106.913 81.9693 110.217C78.3627 112.144 74.885 112.118 71.2272 110.45C64.8914 107.559 59.596 103.286 54.8318 98.308C50.1659 93.4322 45.8965 88.2149 41.842 82.8215C41.742 82.6884 41.6289 82.5651 41.522 82.4372C41.4715 82.4755 41.421 82.5139 41.3705 82.5523Z" fill="currentColor"/>
<path d="M42.4705 37.3483C42.4504 36.8768 42.6057 36.5195 42.9611 36.1849C48.4353 31.0295 53.9911 25.9686 60.0574 21.5051C61.7114 20.288 63.4088 19.1324 65.1888 18.0938C66.0746 17.5769 66.6032 17.7558 67.0679 18.5724C67.5175 19.3624 68.0072 20.1306 68.431 20.9338C69.0905 22.1837 69.6613 23.479 70.4816 24.643C71.0504 25.45 71.1563 26.3936 71.094 27.3513C71.0471 28.0726 71.2899 28.652 71.7657 29.1848C72.7867 30.3283 73.9775 31.2489 75.3016 32.0095C75.7684 32.2776 76.2492 32.5321 76.6781 32.8536C77.7995 33.694 77.8239 34.4781 76.797 35.3976C75.4056 36.6437 75.4687 36.8284 76.0762 38.519C76.4021 39.4258 76.5011 40.5566 76.2757 41.4824C75.9998 42.6157 75.9394 43.6307 76.3029 44.7265C76.9897 46.7967 76.4976 47.6875 74.4075 48.3894C72.9197 48.889 71.3607 49.0887 69.83 49.0951C66.8148 49.1077 65.3442 50.8938 64.3934 53.3948C63.798 54.961 63.821 54.9855 62.3179 54.2748C57.9946 52.2309 53.6921 50.1419 49.3446 48.151C48.4337 47.7338 47.8224 47.3433 47.6218 46.2634C47.3863 44.9964 46.3593 44.1474 45.5204 43.2282C44.2871 41.8769 43.0911 40.503 42.6893 38.6416C42.5972 38.2146 42.5424 37.7796 42.4705 37.3483Z" fill="currentColor"/>
<path d="M77.0223 164.335C97.496 164.334 117.97 164.334 138.444 164.335C138.916 164.335 139.39 164.315 139.86 164.35C140.905 164.426 141.74 165.252 141.786 166.22C141.831 167.169 141.152 167.94 140 168.019C138.523 168.121 137.036 168.11 135.554 168.11C103.916 168.118 72.2775 168.122 40.6394 168.123C32.0725 168.124 23.5055 168.111 14.9385 168.105C13.2855 168.104 12.5922 167.732 12.366 166.715C12.0794 165.426 12.8888 164.391 14.286 164.352C15.8027 164.309 17.3214 164.335 18.8392 164.335C38.2336 164.335 57.6279 164.335 77.0223 164.335Z" fill="currentColor"/>
<path d="M62.0583 162.181C47.3333 162.181 32.6705 162.181 18.0078 162.181C19.9144 160.746 21.7129 159.14 24.3235 159.725C24.3235 159.518 24.3508 159.429 24.3196 159.396C22.4825 157.445 22.9798 155.219 25.4887 154.227C26.3465 153.888 27.25 153.764 28.1669 153.835C29.3827 153.928 30.511 153.668 31.56 153.067C33.3026 152.068 35.1582 151.42 37.1472 151.108C39.7989 150.693 41.895 149.317 43.5943 147.27C44.365 146.341 45.3114 145.67 46.5585 145.504C48.417 145.256 49.8614 145.963 50.9479 147.427C53.4367 150.779 55.8849 154.161 58.3829 157.507C59.5625 159.086 60.8189 160.609 62.0583 162.181Z" fill="currentColor"/>
<path d="M40.623 34.8228C36.9748 30.8082 36.3073 27.2986 38.5171 23.035C42.173 15.9811 47.9643 11.8943 55.8694 10.879C57.4708 10.6733 58.9431 11.1277 60.2687 12.0231C60.9374 12.4749 61.5753 12.976 62.2012 13.4866C62.982 14.1236 63.736 14.7933 64.5058 15.4525C55.5177 20.7105 48.0193 27.7008 40.623 34.8228Z" fill="currentColor"/>
<path d="M120.583 58.7753C120.354 62.3493 119.649 65.7696 117.797 68.899C117.062 70.1421 116.472 71.4714 115.818 72.7623C115.252 73.8783 114.433 74.7214 113.297 75.287C111.971 75.9468 110.696 76.708 109.372 77.3709C107.309 78.4033 105.615 79.8615 104.256 81.7063C103.936 82.1405 103.771 82.205 103.361 81.7952C101.743 80.1761 100.099 78.5809 98.4303 77.0136C98.0227 76.6309 97.9741 76.4352 98.3715 75.9923C99.3444 74.9082 99.5267 73.5333 99.6351 72.1355C99.7209 71.0294 99.8582 69.9239 100.04 68.8293C100.246 67.5806 100.736 66.4488 101.596 65.4861C103.142 63.7548 104.042 61.6275 105.134 59.6188C105.472 58.9973 105.779 58.3549 106.264 57.8289C106.764 57.2863 107.341 56.8384 108.121 57.1595C108.858 57.4636 109.089 58.151 109.129 58.8871C109.168 59.6091 108.931 60.2863 108.633 60.9285C108.124 62.0268 107.553 63.0966 107.055 64.1998C106.679 65.0341 106.234 66.0565 106.9 66.771C107.542 67.4607 108.5 66.8583 109.251 66.5538C112.981 65.0403 115.585 62.4298 116.859 58.565C117.102 57.8283 117.368 57.0984 117.781 56.4383C118.112 55.9089 118.527 55.4422 119.232 55.5341C119.987 55.6325 120.302 56.232 120.436 56.8677C120.566 57.4865 120.54 58.138 120.583 58.7753Z" fill="currentColor"/>
</g>
</svg>
