<svg xmlns="http://www.w3.org/2000/svg" width="100%" height="100%" viewBox="0 0 66 66" fill="none">
  <g filter="url(#filter0_i_5347_2114)">
    <path fill-rule="evenodd" clip-rule="evenodd" d="M35.0173 1.42188C34.3045 1.42188 33.621 1.70502 33.117 2.20903C32.613 2.71303 32.3298 3.39661 32.3298 4.10938V8.14062C32.3298 8.85339 32.613 9.53697 33.117 10.041C33.621 10.545 34.3045 10.8281 35.0173 10.8281C35.7301 10.8281 36.4137 10.545 36.9177 10.041C37.4217 9.53697 37.7048 8.85339 37.7048 8.14062V4.10938C37.7048 3.39661 37.4217 2.71303 36.9177 2.20903C36.4137 1.70502 35.7301 1.42188 35.0173 1.42188ZM12.1736 29.6406C11.4608 29.6406 10.7772 29.3575 10.2732 28.8535C9.76921 28.3495 9.48607 27.6659 9.48607 26.9531C9.48607 26.2404 9.76921 25.5568 10.2732 25.0528C10.7772 24.5488 11.4608 24.2656 12.1736 24.2656H16.2048C16.9176 24.2656 17.6012 24.5488 18.1052 25.0528C18.6092 25.5568 18.8923 26.2404 18.8923 26.9531C18.8923 27.6659 18.6092 28.3495 18.1052 28.8535C17.6012 29.3575 16.9176 29.6406 16.2048 29.6406H12.1736ZM57.8611 29.6406C58.5738 29.6406 59.2574 29.3575 59.7614 28.8535C60.2654 28.3495 60.5486 27.6659 60.5486 26.9531C60.5486 26.2404 60.2654 25.5568 59.7614 25.0528C59.2574 24.5488 58.5738 24.2656 57.8611 24.2656H53.8298C53.117 24.2656 52.4335 24.5488 51.9295 25.0528C51.4255 25.5568 51.1423 26.2404 51.1423 26.9531C51.1423 27.6659 51.4255 28.3495 51.9295 28.8535C52.4335 29.3575 53.117 29.6406 53.8298 29.6406H57.8611ZM16.9627 12.7027C16.4588 12.1986 16.1757 11.5149 16.1759 10.8021C16.176 10.0893 16.4593 9.40579 16.9634 8.90186C17.4675 8.39793 18.1511 8.1149 18.8639 8.11502C19.5767 8.11515 20.2602 8.39843 20.7642 8.90253L23.6143 11.7513C23.8639 12.0008 24.0621 12.2971 24.1973 12.6231C24.3325 12.9492 24.4021 13.2987 24.4022 13.6517C24.4024 14.0047 24.333 14.3543 24.198 14.6805C24.063 15.0067 23.8651 15.3031 23.6156 15.5527C23.3661 15.8024 23.0698 16.0006 22.7437 16.1358C22.4177 16.271 22.0681 16.3406 21.7151 16.3407C21.3621 16.3409 21.0126 16.2715 20.6864 16.1365C20.3602 16.0015 20.0638 15.8036 19.8141 15.5541L16.9627 12.7027ZM53.0692 8.90253C53.5731 9.40651 53.8561 10.09 53.8561 10.8026C53.8561 11.5152 53.5731 12.1987 53.0692 12.7027L50.2178 15.5527C49.9699 15.8094 49.6733 16.0142 49.3455 16.155C49.0176 16.2959 48.6649 16.37 48.3081 16.3731C47.9512 16.3762 47.5973 16.3082 47.2671 16.1731C46.9368 16.038 46.6367 15.8384 46.3844 15.5861C46.132 15.3337 45.9325 15.0337 45.7974 14.7034C45.6622 14.3731 45.5942 14.0192 45.5973 13.6624C45.6004 13.3055 45.6746 12.9529 45.8154 12.625C45.9563 12.2971 46.161 12.0005 46.4177 11.7526L49.2678 8.90253C49.5174 8.65286 49.8137 8.4548 50.1398 8.31967C50.4659 8.18455 50.8155 8.115 51.1685 8.115C51.5215 8.115 51.8711 8.18455 52.1972 8.31967C52.5234 8.4548 52.8197 8.65286 53.0692 8.90253ZM34.4113 14.2413C34.8058 13.8806 35.3274 13.6915 35.8614 13.7154C36.3954 13.7394 36.898 13.9744 37.2587 14.3689L37.2627 14.3729L37.2668 14.3783L37.2802 14.3918L37.3205 14.4374L37.4549 14.5947C37.5713 14.729 37.7362 14.9292 37.9494 15.1953C38.378 15.7328 39.0042 16.5498 39.8279 17.7135C41.474 20.0382 43.9156 23.7483 47.146 29.345C50.3777 34.9404 52.3692 38.9085 53.5597 41.4992C54.0009 42.4489 54.415 43.411 54.8013 44.3843C54.9214 44.6896 55.0352 44.9974 55.1427 45.3074L55.1615 45.3652L55.1682 45.384L55.1709 45.3934V45.3961C55.3258 45.9008 55.2766 46.4461 55.0338 46.9148C54.791 47.3836 54.374 47.7384 53.8724 47.903C53.3708 48.0675 52.8246 48.0287 52.3513 47.7949C51.878 47.5611 51.5153 47.1509 51.3412 46.6525C49.6682 47.2142 47.9684 47.7678 46.2591 48.3093C45.7243 47.0068 45.1612 45.716 44.57 44.438C42.9145 40.8697 41.1 37.3774 39.1319 33.9715C37.1672 30.5643 35.051 27.2469 32.7894 24.0291C31.9788 22.8796 31.1432 21.7479 30.2833 20.6348C31.6069 19.4254 32.9358 18.2295 34.2594 17.0618C33.9101 16.6655 33.7303 16.148 33.7587 15.6205C33.7871 15.093 34.0214 14.5977 34.4113 14.2413ZM42.2185 49.0847C42.2794 49.2271 42.339 49.3696 42.3972 49.512C39.6559 50.3518 36.9281 51.1568 34.2917 51.9119L34.6639 53.2987C35.2719 55.5676 34.9537 57.9851 33.7792 60.0194C32.6048 62.0537 30.6703 63.5381 28.4014 64.1461C26.1324 64.7541 23.7149 64.4359 21.6806 63.2614C19.6463 62.087 18.1619 60.1525 17.5539 57.8836L17.1965 56.5506C15.8796 56.8865 14.7509 57.1727 13.8506 57.3971C11.6347 57.9507 9.22135 57.2036 7.79966 55.2713C7.28904 54.5753 6.71794 53.7529 6.25838 52.9547C5.8013 52.1469 5.3886 51.3148 5.02213 50.462C4.06001 48.265 4.61901 45.8006 6.20732 44.1585C9.71451 40.5304 18.1559 31.9089 27.3096 23.3787L27.5877 23.7416C28.0379 24.3355 28.6923 25.217 29.4945 26.3538C31.6861 29.472 33.7369 32.6868 35.6408 35.9885C37.548 39.2881 39.3065 42.6715 40.911 46.1284C41.4955 47.3916 41.9323 48.3994 42.2198 49.0847H42.2185ZM22.3982 55.1934L22.7462 56.4914C22.8644 56.933 23.0685 57.347 23.3467 57.7098C23.6249 58.0725 23.9719 58.3769 24.3677 58.6056C24.7636 58.8342 25.2006 58.9827 25.6538 59.0424C26.1071 59.1022 26.5676 59.0721 27.0092 58.9539C27.4508 58.8356 27.8648 58.6316 28.2276 58.3534C28.5903 58.0751 28.8947 57.7282 29.1234 57.3323C29.352 56.9365 29.5005 56.4994 29.5602 56.0462C29.62 55.593 29.5899 55.1324 29.4717 54.6908L29.1183 53.3713C26.717 54.0364 24.4528 54.6478 22.3982 55.1934Z" fill="url(#paint0_linear_5347_2114)"/>
  </g>
  <defs>
    <filter id="filter0_i_5347_2114" x="0.75" y="0.75" width="65.6518" height="65.6518" filterUnits="userSpaceOnUse" color-interpolation-filters="sRGB">
      <feFlood flood-opacity="0" result="BackgroundImageFix"/>
      <feBlend mode="normal" in="SourceGraphic" in2="BackgroundImageFix" result="shape"/>
      <feColorMatrix in="SourceAlpha" type="matrix" values="0 0 0 0 0 0 0 0 0 0 0 0 0 0 0 0 0 0 127 0" result="hardAlpha"/>
      <feOffset dx="1.15179" dy="1.15179"/>
      <feGaussianBlur stdDeviation="0.575893"/>
      <feComposite in2="hardAlpha" operator="arithmetic" k2="-1" k3="1"/>
      <feColorMatrix type="matrix" values="0 0 0 0 0 0 0 0 0 0 0 0 0 0 0 0 0 0 0.25 0"/>
      <feBlend mode="normal" in2="shape" result="effect1_innerShadow_5347_2114"/>
    </filter>
    <linearGradient id="paint0_linear_5347_2114" x1="32.5487" y1="1.42188" x2="32.5487" y2="64.448" gradientUnits="userSpaceOnUse">
      <stop stop-color="#4D4D4D"/>
      <stop offset="1" stop-color="#151212"/>
    </linearGradient>
  </defs>
</svg>