<svg width="100%" height="100%" viewBox="0 0 40 40" fill="none" xmlns="http://www.w3.org/2000/svg">
<g clip-path="url(#clip0_8409_233)">
<path d="M14.4336 7.43752C15.0808 7.43752 15.6055 6.91284 15.6055 6.26565V3.90588C15.6055 3.2587 15.0808 2.73401 14.4336 2.73401C13.7864 2.73401 13.2617 3.2587 13.2617 3.90588V6.26565C13.2617 6.91284 13.7864 7.43752 14.4336 7.43752Z" fill="currentColor"/>
<path d="M3.80213 11.7271L1.75846 10.5472C1.19792 10.2235 0.481197 10.4157 0.157682 10.9761C-0.165912 11.5367 0.0261192 12.2534 0.586588 12.5769L2.63026 13.7568C3.18948 14.0798 3.90674 13.8897 4.23104 13.3279C4.55464 12.7674 4.3626 12.0507 3.80213 11.7271Z" fill="currentColor"/>
<path d="M2.63026 24.6799L0.586588 25.8598C0.0261192 26.1834 -0.165912 26.9 0.157682 27.4606C0.482916 28.0238 1.20065 28.2117 1.75846 27.8895L3.80213 26.7096C4.3626 26.386 4.55464 25.6693 4.23104 25.1088C3.90745 24.5484 3.19088 24.3561 2.63026 24.6799Z" fill="currentColor"/>
<path d="M26.2367 13.7568L28.2804 12.5769C28.8409 12.2533 29.0329 11.5367 28.7093 10.9761C28.3857 10.4157 27.6692 10.2235 27.1085 10.5472L25.0649 11.7271C24.5044 12.0507 24.3124 12.7674 24.636 13.3279C24.9612 13.8912 25.6789 14.079 26.2367 13.7568Z" fill="currentColor"/>
<path d="M31.1651 20.8821C29.8236 17.5671 26.5695 15.3752 22.9897 15.3906C21.5227 12.1243 18.24 9.84338 14.4335 9.84338C9.26414 9.84338 5.05859 14.049 5.05859 19.2184C5.05859 22.5349 6.79047 25.4535 9.39648 27.1205C6.61781 31.5102 9.77719 37.2653 14.9754 37.2653C33.4138 37.246 32.4049 37.3124 32.726 37.2128C36.8219 36.7508 40.0005 33.2769 40.0005 29.0622C40.0005 24.2492 35.8879 20.5121 31.1651 20.8821ZM7.40234 19.2185C7.40234 15.3414 10.5566 12.1872 14.4336 12.1872C17.048 12.1872 19.3324 13.6224 20.5438 15.7456C16.8408 16.8306 14.2696 20.2114 14.2284 24.0901C13.0643 24.2178 11.9667 24.6528 11.0214 25.3636C8.86477 24.1614 7.40234 21.8578 7.40234 19.2185ZM32.2827 34.9014C31.8653 34.9353 21.2309 34.9156 14.9754 34.9216C11.1112 34.9216 9.2282 30.1317 12.1033 27.5063C12.9662 26.7182 14.1154 26.2989 15.3676 26.4128C16.123 26.481 16.7385 25.8274 16.6342 25.0831C16.0909 21.2057 19.0935 17.7341 23.0162 17.7341C25.918 17.7341 28.4757 19.6874 29.2359 22.4842C29.3984 23.0817 29.9978 23.4495 30.604 23.3244C34.2566 22.569 37.6568 25.3612 37.6568 29.0622C37.6568 32.09 35.2962 34.6549 32.2827 34.9014Z" fill="currentColor"/>
</g>
</svg>
