<svg width="100%" height="100%" viewBox="0 0 40 40" fill="none" xmlns="http://www.w3.org/2000/svg">
<path d="M21.2504 6.875V3.125C21.2504 2.79348 21.1187 2.47554 20.8843 2.24112C20.6498 2.0067 20.3319 1.875 20.0004 1.875C19.6688 1.875 19.3509 2.0067 19.1165 2.24112C18.8821 2.47554 18.7504 2.79348 18.7504 3.125V6.875C18.7504 7.20652 18.8821 7.52446 19.1165 7.75888C19.3509 7.9933 19.6688 8.125 20.0004 8.125C20.3319 8.125 20.6498 7.9933 20.8843 7.75888C21.1187 7.52446 21.2504 7.20652 21.2504 6.875Z" fill="currentColor"/>
<path d="M21.2504 35.625V31.875C21.2504 31.5435 21.1187 31.2255 20.8843 30.9911C20.6498 30.7567 20.3319 30.625 20.0004 30.625C19.6688 30.625 19.3509 30.7567 19.1165 30.9911C18.8821 31.2255 18.7504 31.5435 18.7504 31.875V35.625C18.7504 35.9565 18.8821 36.2745 19.1165 36.5089C19.3509 36.7433 19.6688 36.875 20.0004 36.875C20.3319 36.875 20.6498 36.7433 20.8843 36.5089C21.1187 36.2745 21.2504 35.9565 21.2504 35.625Z" fill="currentColor"/>
<path d="M2.50037 19.375C2.50037 19.7065 2.63206 20.0245 2.86648 20.2589C3.1009 20.4933 3.41885 20.625 3.75037 20.625H7.50037C7.83189 20.625 8.14983 20.4933 8.38425 20.2589C8.61867 20.0245 8.75037 19.7065 8.75037 19.375C8.75037 19.0435 8.61867 18.7255 8.38425 18.4911C8.14983 18.2567 7.83189 18.125 7.50037 18.125H3.75037C3.41885 18.125 3.1009 18.2567 2.86648 18.4911C2.63206 18.7255 2.50037 19.0435 2.50037 19.375Z" fill="currentColor"/>
<path d="M36.2504 18.125H32.5004C32.1688 18.125 31.8509 18.2567 31.6165 18.4911C31.3821 18.7255 31.2504 19.0435 31.2504 19.375C31.2504 19.7065 31.3821 20.0245 31.6165 20.2589C31.8509 20.4933 32.1688 20.625 32.5004 20.625H36.2504C36.5819 20.625 36.8998 20.4933 37.1343 20.2589C37.3687 20.0245 37.5004 19.7065 37.5004 19.375C37.5004 19.0435 37.3687 18.7255 37.1343 18.4911C36.8998 18.2567 36.5819 18.125 36.2504 18.125Z" fill="currentColor"/>
<path d="M9.38847 6.99759C9.14886 6.80588 8.8471 6.70901 8.54068 6.72542C8.23425 6.74184 7.94457 6.8704 7.72681 7.08661C7.50906 7.30282 7.37844 7.59158 7.35984 7.89788C7.34125 8.20419 7.43597 8.50663 7.62597 8.74759L10.276 11.4226C10.3928 11.5384 10.5313 11.6301 10.6836 11.6923C10.8359 11.7545 10.999 11.786 11.1635 11.7851C11.328 11.786 11.4911 11.7545 11.6434 11.6923C11.7957 11.6301 11.9342 11.5384 12.051 11.4226C12.1681 11.3064 12.2611 11.1681 12.3246 11.0158C12.388 10.8635 12.4207 10.7001 12.4207 10.5351C12.4207 10.3701 12.388 10.2067 12.3246 10.0544C12.2611 9.90205 12.1681 9.7638 12.051 9.64759L9.38847 6.99759Z" fill="currentColor"/>
<path d="M29.7248 27.3256C29.6082 27.2091 29.4699 27.1166 29.3176 27.0535C29.1653 26.9905 29.0021 26.958 28.8373 26.958C28.6724 26.958 28.5092 26.9905 28.357 27.0535C28.2047 27.1166 28.0663 27.2091 27.9498 27.3256C27.8332 27.4422 27.7408 27.5805 27.6777 27.7328C27.6146 27.8851 27.5822 28.0483 27.5822 28.2131C27.5822 28.3779 27.6146 28.5412 27.6777 28.6934C27.7408 28.8457 27.8332 28.9841 27.9498 29.1006L30.6123 31.7506C30.8451 31.9816 31.1593 32.1117 31.4873 32.1131C31.6518 32.1141 31.8149 32.0825 31.9672 32.0203C32.1194 31.9581 32.258 31.8665 32.3748 31.7506C32.6076 31.5164 32.7383 31.1996 32.7383 30.8694C32.7383 30.5391 32.6076 30.2223 32.3748 29.9881L29.7248 27.3256Z" fill="currentColor"/>
<path d="M8.51332 32.1131C8.84124 32.1117 9.15549 31.9816 9.38832 31.7506L12.0508 29.1006C12.2862 28.8652 12.4184 28.546 12.4184 28.2131C12.4184 27.8802 12.2862 27.561 12.0508 27.3256C11.8154 27.0902 11.4962 26.958 11.1633 26.958C10.8304 26.958 10.5112 27.0902 10.2758 27.3256L7.62582 30.0006C7.39301 30.2348 7.26233 30.5516 7.26233 30.8819C7.26233 31.2121 7.39301 31.5289 7.62582 31.7631C7.86375 31.9925 8.18285 32.1184 8.51332 32.1131Z" fill="currentColor"/>
<path d="M29.7257 11.4245L32.3757 8.74948C32.5132 8.63942 32.626 8.50152 32.7065 8.34484C32.787 8.18816 32.8335 8.01622 32.843 7.8403C32.8524 7.66439 32.8245 7.48847 32.7612 7.32408C32.6979 7.15969 32.6005 7.01054 32.4755 6.88641C32.3505 6.76229 32.2006 6.66599 32.0358 6.60383C31.871 6.54167 31.6948 6.51506 31.519 6.52573C31.3432 6.53641 31.1716 6.58413 31.0155 6.66578C30.8593 6.74742 30.7223 6.86114 30.6132 6.99948L27.9507 9.64948C27.8335 9.76568 27.7405 9.90393 27.6771 10.0563C27.6136 10.2086 27.5809 10.372 27.5809 10.537C27.5809 10.702 27.6136 10.8654 27.6771 11.0177C27.7405 11.17 27.8335 11.3083 27.9507 11.4245C28.0675 11.5403 28.206 11.632 28.3583 11.6942C28.5106 11.7564 28.6737 11.7879 28.8382 11.787C29.0027 11.7879 29.1658 11.7564 29.3181 11.6942C29.4704 11.632 29.6089 11.5403 29.7257 11.4245Z" fill="currentColor"/>
<path d="M10.0004 19.375C10.0004 21.3528 10.5869 23.2862 11.6857 24.9307C12.7845 26.5752 14.3463 27.8569 16.1735 28.6138C18.0008 29.3707 20.0115 29.5687 21.9513 29.1829C23.8911 28.797 25.6729 27.8446 27.0714 26.4461C28.47 25.0475 29.4224 23.2657 29.8082 21.3259C30.1941 19.3861 29.996 17.3754 29.2392 15.5482C28.4823 13.7209 27.2006 12.1591 25.5561 11.0603C23.9116 9.96149 21.9782 9.375 20.0004 9.375C17.3482 9.375 14.8047 10.4286 12.9293 12.3039C11.0539 14.1793 10.0004 16.7228 10.0004 19.375ZM20.0004 11.875C21.4837 11.875 22.9338 12.3149 24.1671 13.139C25.4005 13.9631 26.3618 15.1344 26.9295 16.5049C27.4971 17.8753 27.6456 19.3833 27.3563 20.8382C27.0669 22.293 26.3526 23.6294 25.3037 24.6783C24.2548 25.7272 22.9184 26.4415 21.4635 26.7309C20.0087 27.0203 18.5007 26.8718 17.1302 26.3041C15.7598 25.7364 14.5885 24.7751 13.7643 23.5418C12.9402 22.3084 12.5004 20.8584 12.5004 19.375C12.5004 17.3859 13.2905 15.4782 14.6971 14.0717C16.1036 12.6652 18.0112 11.875 20.0004 11.875Z" fill="currentColor"/>
</svg>
