<svg width="100%" height="100%" viewBox="0 0 40 40" fill="none" xmlns="http://www.w3.org/2000/svg">
<g clip-path="url(#clip0_8409_295)">
<path d="M19.9768 15.8204C19.5159 15.8204 19.1409 16.1954 19.1409 16.6563V18.6563C19.1409 19.1172 19.5159 19.4922 19.9768 19.4922C20.4377 19.4922 20.8127 19.1172 20.8127 18.6563V16.6563C20.8127 16.1954 20.4377 15.8204 19.9768 15.8204Z" fill="currentColor"/>
<path d="M12.2346 20.969C12.4612 21.3675 12.9768 21.5003 13.3753 21.2737C13.7737 21.0471 13.9065 20.5315 13.68 20.1331L12.6721 18.3909C12.4456 17.9925 11.93 17.8518 11.5315 18.0862C11.1331 18.3128 11.0003 18.8284 11.2268 19.2268L12.2346 20.969Z" fill="currentColor"/>
<path d="M5.65652 25.4063L7.42996 26.4298C7.8284 26.6642 8.33621 26.5235 8.57059 26.1251C8.79715 25.7267 8.66434 25.2188 8.2659 24.9845L6.49246 23.961C6.09402 23.7345 5.58621 23.8673 5.35184 24.2657C5.12527 24.672 5.25809 25.1798 5.65652 25.4063Z" fill="currentColor"/>
<path d="M32.5236 26.4298L34.1408 25.5001C34.5393 25.2736 34.6799 24.758 34.4455 24.3595C34.219 23.9611 33.7111 23.8205 33.3049 24.0548L31.6877 24.9845C31.2893 25.2111 31.1486 25.7267 31.383 26.1251C31.6174 26.5236 32.1252 26.6564 32.5236 26.4298Z" fill="currentColor"/>
<path d="M26.5861 21.2815C26.9846 21.5159 27.4924 21.3753 27.7268 20.9768L28.6408 19.3909C28.8674 18.9925 28.7346 18.4846 28.3361 18.2503C27.9377 18.0237 27.4299 18.1565 27.1955 18.555L26.2815 20.1409C26.0471 20.5393 26.1877 21.0471 26.5861 21.2815Z" fill="currentColor"/>
<path d="M39.1643 29.2187H31.5081C30.0159 24.1172 25.3752 20.6016 19.9846 20.6016C14.594 20.6016 9.95337 24.1172 8.46118 29.2187H0.836182C0.375244 29.2187 0.000244141 29.5938 0.000244141 30.0547C0.000244141 30.5156 0.375244 30.8906 0.836182 30.8906H39.1721C39.6331 30.8906 40.0081 30.5156 40.0081 30.0547C40.0081 29.5938 39.6252 29.2187 39.1643 29.2187ZM10.1956 29.2187C11.6174 25.0781 15.5081 22.2656 19.9846 22.2656C24.4612 22.2656 28.344 25.0781 29.7737 29.2187H10.1956Z" fill="currentColor"/>
<path d="M33.9456 32.9453H6.05493C5.59399 32.9453 5.21899 33.3203 5.21899 33.7812C5.21899 34.2422 5.59399 34.6172 6.05493 34.6172H33.9534C34.4143 34.6172 34.7893 34.2422 34.7893 33.7812C34.7815 33.3125 34.4065 32.9453 33.9456 32.9453Z" fill="currentColor"/>
<path d="M27.3831 36.6642H12.6096C12.1487 36.6642 11.7737 37.0392 11.7737 37.5001C11.7737 37.9611 12.1487 38.3361 12.6096 38.3361H27.3831C27.844 38.3361 28.219 37.9611 28.219 37.5001C28.219 37.0392 27.844 36.6642 27.3831 36.6642Z" fill="currentColor"/>
<path d="M19.3909 10.0861C19.7112 10.4298 20.2581 10.4376 20.594 10.1095L22.9612 7.74231C23.2893 7.41419 23.2893 6.89075 22.9612 6.56262C22.6331 6.2345 22.1096 6.2345 21.7815 6.56262L20.8362 7.50793V2.50012C20.8362 2.03918 20.4612 1.66418 20.0003 1.66418C19.5393 1.66418 19.1643 2.03918 19.1643 2.50012V7.50793L18.219 6.56262C17.8909 6.2345 17.3674 6.2345 17.0393 6.56262C16.7112 6.89075 16.719 7.41419 17.0393 7.74231L19.3909 10.0861Z" fill="currentColor"/>
</g>
</svg>
