<svg width="155" height="183" viewBox="0 0 155 183" fill="none" xmlns="http://www.w3.org/2000/svg">
<g filter="url(#filter0_di_9067_4109)">
<path d="M42.0502 82.9664C43.9749 86.1963 45.8996 89.4263 47.8243 92.6562C45.6301 90.8173 43.6927 88.7356 42.0296 86.4172C41.7913 86.5714 41.8627 86.6873 41.9247 86.7963C47.1854 96.0486 53.874 103.986 63.0324 109.63C65.191 110.96 67.4982 111.997 69.9332 112.717C70.5608 112.902 70.879 113.192 70.9795 113.863C71.0981 114.657 71.3334 115.437 71.5729 116.206C72.4295 118.957 74.2719 120.634 77.0993 121.236C82.7301 122.436 88.4216 123.332 94.0283 124.654C102.253 126.593 110.257 129.139 117.743 133.136C121.536 135.162 124.788 137.755 126.64 141.78C129.769 148.581 127.826 155.518 121.627 159.706C121.526 159.774 121.437 159.859 121.142 160.1C122.668 160.1 123.963 160.101 125.259 160.1C126.811 160.099 128.362 160.096 129.914 160.094C132.31 160.092 134.506 160.901 136.469 162.523C136.178 162.813 135.83 162.633 135.529 162.633C113.841 162.652 92.1521 162.68 70.4635 162.656C65.5263 162.651 66.8766 163.28 63.6668 159.424C60.3441 155.433 57.3549 151.182 54.2828 146.998C53.1679 145.479 51.8942 144.145 50.0611 143.515C47.1209 142.506 44.4429 143.336 42.1993 145.925C41.1795 147.102 40.1375 148.213 38.6525 148.859C37.8597 149.204 37.4407 148.995 36.9668 148.389C34.9772 145.842 33.7957 142.919 32.9445 139.845C31.2145 133.597 30.5773 127.207 30.4655 120.744C30.2933 110.786 30.7511 100.857 31.6383 90.9384C32.1582 85.1266 32.7006 79.3255 34.1518 73.6585C35.5501 68.198 37.461 62.9634 41.298 58.6585C41.7682 58.1309 42.2256 57.5602 42.7939 57.1574C45.0171 55.5817 46.4476 53.4166 47.5213 50.9799C47.8575 50.2171 48.2362 50.1618 48.971 50.5148C53.9194 52.8921 58.8876 55.2282 63.8608 57.5533C64.3726 57.7926 64.4796 58.0238 64.2263 58.522C63.0382 60.8594 63.2616 63.0567 64.4572 65.4182C66.1806 68.8219 67.0821 72.5523 67.9111 76.2664C68.3013 78.0144 68.9409 79.5782 70.0371 80.9962C71.7474 83.2086 73.3141 85.5344 75.1786 87.6245C76.8604 89.5099 79.2609 89.8916 81.377 88.5019C84.1931 86.6525 86.9273 84.6784 89.7019 82.7653C91.7548 81.3498 93.8184 79.9498 95.8708 78.5338C96.1977 78.3083 96.4334 78.1747 96.8155 78.5198C100.757 82.0793 104.435 85.869 107.321 90.3618C107.794 91.0984 108.222 91.8647 108.518 92.6954C109.127 94.4057 108.812 95.5127 107.324 96.5662C105.312 97.9894 103.142 99.1571 101.013 100.39C94.9473 103.903 88.833 107.327 82.649 110.631C79.0424 112.558 75.5647 112.532 71.9068 110.864C65.5711 107.973 60.2757 103.701 55.5115 98.722C50.8456 93.8462 46.5761 88.6289 42.5217 83.2355C42.4216 83.1024 42.3086 82.9792 42.2016 82.8513C42.1512 82.8896 42.1007 82.928 42.0502 82.9664Z" fill="white"/>
<path d="M43.1502 37.7624C43.1301 37.2909 43.2854 36.9335 43.6407 36.5989C49.115 31.4435 54.6708 26.3826 60.7371 21.9191C62.3911 20.7021 64.0885 19.5465 65.8685 18.5078C66.7543 17.9909 67.2828 18.1699 67.7476 18.9865C68.1972 19.7764 68.6868 20.5447 69.1107 21.3479C69.7701 22.5978 70.341 23.8931 71.1613 25.057C71.7301 25.864 71.836 26.8077 71.7737 27.7654C71.7268 28.4867 71.9696 29.0661 72.4453 29.5988C73.4664 30.7424 74.6572 31.6629 75.9813 32.4235C76.4481 32.6917 76.9289 32.9461 77.3578 33.2676C78.4792 34.1081 78.5035 34.8921 77.4767 35.8117C76.0852 37.0577 76.1484 37.2424 76.7559 38.933C77.0818 39.8398 77.1807 40.9706 76.9554 41.8965C76.6795 43.0298 76.6191 44.0448 76.9826 45.1406C77.6694 47.2108 77.1773 48.1016 75.0872 48.8034C73.5994 49.3031 72.0404 49.5027 70.5097 49.5091C67.4945 49.5218 66.0239 51.3078 65.0731 53.8089C64.4776 55.375 64.5007 55.3995 62.9976 54.6889C58.6743 52.6449 54.3718 50.5559 50.0243 48.5651C49.1134 48.1479 48.5021 47.7574 48.3014 46.6775C48.066 45.4105 47.039 44.5615 46.2001 43.6423C44.9668 42.291 43.7708 40.9171 43.369 39.0556C43.2769 38.6286 43.2221 38.1937 43.1502 37.7624Z" fill="white"/>
<path d="M77.7019 164.749C98.1757 164.748 118.649 164.748 139.123 164.749C139.595 164.749 140.069 164.73 140.539 164.764C141.584 164.84 142.42 165.666 142.466 166.634C142.511 167.583 141.832 168.354 140.68 168.433C139.203 168.535 137.716 168.524 136.233 168.524C104.595 168.532 72.9572 168.536 41.3191 168.538C32.7521 168.538 24.1852 168.525 15.6182 168.519C13.9652 168.518 13.2719 168.146 13.0457 167.129C12.7591 165.84 13.5685 164.805 14.9657 164.766C16.4824 164.723 18.0011 164.749 19.5189 164.749C38.9133 164.749 58.3076 164.749 77.7019 164.749Z" fill="white"/>
<path d="M62.738 162.595C48.013 162.595 33.3502 162.595 18.6875 162.595C20.5941 161.16 22.3926 159.554 25.0032 160.139C25.0032 159.932 25.0305 159.844 24.9993 159.81C23.1622 157.859 23.6595 155.633 26.1684 154.641C27.0262 154.302 27.9297 154.178 28.8466 154.249C30.0624 154.343 31.1907 154.082 32.2397 153.481C33.9822 152.482 35.8379 151.834 37.8269 151.522C40.4786 151.107 42.5747 149.731 44.274 147.684C45.0447 146.755 45.9911 146.084 47.2382 145.918C49.0967 145.67 50.5411 146.377 51.6276 147.841C54.1164 151.193 56.5646 154.575 59.0625 157.921C60.2422 159.501 61.4986 161.023 62.738 162.595Z" fill="white"/>
<path d="M41.3026 35.2369C37.6544 31.2223 36.987 27.7126 39.1967 23.449C42.8527 16.3952 48.644 12.3084 56.5491 11.2931C58.1505 11.0874 59.6228 11.5417 60.9484 12.4372C61.6171 12.8889 62.255 13.3901 62.8809 13.9007C63.6617 14.5376 64.4157 15.2073 65.1855 15.8665C56.1974 21.1245 48.699 28.1148 41.3026 35.2369Z" fill="white"/>
<path d="M121.263 59.1893C121.034 62.7634 120.329 66.1837 118.477 69.313C117.742 70.5561 117.152 71.8855 116.497 73.1764C115.931 74.2923 115.113 75.1355 113.977 75.701C112.651 76.3609 111.376 77.1221 110.052 77.7849C107.989 78.8173 106.295 80.2756 104.935 82.1204C104.615 82.5545 104.451 82.6191 104.041 82.2093C102.422 80.5902 100.779 78.9949 99.11 77.4277C98.7024 77.0449 98.6537 76.8493 99.0512 76.4064C100.024 75.3222 100.206 73.9473 100.315 72.5496C100.401 71.4434 100.538 70.338 100.719 69.2434C100.926 67.9947 101.415 66.8628 102.275 65.9001C103.822 64.1689 104.722 62.0415 105.814 60.0329C106.151 59.4114 106.458 58.769 106.943 58.243C107.444 57.7004 108.021 57.2524 108.8 57.5736C109.538 57.8777 109.769 58.565 109.809 59.3012C109.848 60.0232 109.61 60.7003 109.313 61.3425C108.804 62.4408 108.233 63.5107 107.735 64.6139C107.359 65.4482 106.914 66.4706 107.58 67.1851C108.222 67.8748 109.18 67.2724 109.93 66.9679C113.66 65.4544 116.264 62.8438 117.539 58.9791C117.781 58.2424 118.048 57.5125 118.46 56.8524C118.791 56.323 119.207 55.8562 119.912 55.9482C120.666 56.0466 120.982 56.646 121.115 57.2817C121.245 57.9005 121.22 58.5521 121.263 59.1893Z" fill="white"/>
</g>
<defs>
<filter id="filter0_di_9067_4109" x="0.693104" y="0.64485" width="154.071" height="181.884" filterUnits="userSpaceOnUse" color-interpolation-filters="sRGB">
<feFlood flood-opacity="0" result="BackgroundImageFix"/>
<feColorMatrix in="SourceAlpha" type="matrix" values="0 0 0 0 0 0 0 0 0 0 0 0 0 0 0 0 0 0 127 0" result="hardAlpha"/>
<feOffset dy="1.69589"/>
<feGaussianBlur stdDeviation="6.14759"/>
<feComposite in2="hardAlpha" operator="out"/>
<feColorMatrix type="matrix" values="0 0 0 0 1 0 0 0 0 0.879395 0 0 0 0 0.879395 0 0 0 0.25 0"/>
<feBlend mode="normal" in2="BackgroundImageFix" result="effect1_dropShadow_9067_4109"/>
<feBlend mode="normal" in="SourceGraphic" in2="effect1_dropShadow_9067_4109" result="shape"/>
<feColorMatrix in="SourceAlpha" type="matrix" values="0 0 0 0 0 0 0 0 0 0 0 0 0 0 0 0 0 0 127 0" result="hardAlpha"/>
<feOffset dy="1.69589"/>
<feGaussianBlur stdDeviation="0.847943"/>
<feComposite in2="hardAlpha" operator="arithmetic" k2="-1" k3="1"/>
<feColorMatrix type="matrix" values="0 0 0 0 0 0 0 0 0 0 0 0 0 0 0 0 0 0 0.25 0"/>
<feBlend mode="normal" in2="shape" result="effect2_innerShadow_9067_4109"/>
</filter>
</defs>
</svg>
