<svg width="155" height="183" viewBox="0 0 155 183" fill="none" xmlns="http://www.w3.org/2000/svg">
<g filter="url(#filter0_di_8553_2351)">
<path d="M41.3725 83.252C43.2972 86.482 45.2218 89.7119 47.1465 92.9419C44.9524 91.103 43.0149 89.0213 41.3519 86.7029C41.1135 86.857 41.185 86.973 41.247 87.082C46.5077 96.3342 53.1963 104.271 62.3546 109.915C64.5132 111.246 66.8204 112.283 69.2555 113.002C69.8831 113.188 70.2013 113.477 70.3018 114.149C70.4204 114.942 70.6557 115.723 70.8952 116.492C71.7518 119.243 73.5941 120.919 76.4215 121.522C82.0524 122.721 87.7439 123.617 93.3506 124.939C101.575 126.878 109.579 129.425 117.065 133.422C120.858 135.447 124.11 138.04 125.962 142.065C129.091 148.866 127.148 155.804 120.95 159.992C120.849 160.06 120.76 160.145 120.465 160.386C121.99 160.386 123.286 160.386 124.581 160.385C126.133 160.384 127.684 160.382 129.236 160.38C131.632 160.377 133.829 161.187 135.791 162.808C135.501 163.099 135.152 162.918 134.852 162.919C113.163 162.938 91.4743 162.966 69.7857 162.942C64.8485 162.937 66.1988 163.566 62.9891 159.71C59.6663 155.718 56.6771 151.468 53.6051 147.283C52.4902 145.765 51.2165 144.43 49.3834 143.801C46.4431 142.792 43.7651 143.622 41.5216 146.211C40.5017 147.387 39.4598 148.499 37.9748 149.145C37.182 149.49 36.7629 149.281 36.2891 148.675C34.2994 146.128 33.118 143.205 32.2667 140.13C30.5368 133.882 29.8996 127.493 29.7878 121.03C29.6156 111.071 30.0734 101.143 30.9606 91.2241C31.4805 85.4122 32.0229 79.6111 33.4741 73.9441C34.8724 68.4836 36.7833 63.249 40.6202 58.9441C41.0904 58.4166 41.5479 57.8458 42.1161 57.4431C44.3393 55.8673 45.7698 53.7022 46.8435 51.2656C47.1797 50.5027 47.5584 50.4474 48.2933 50.8005C53.2416 53.1777 58.2099 55.5138 63.1831 57.8389C63.6948 58.0782 63.8018 58.3095 63.5486 58.8077C62.3605 61.145 62.5838 63.3423 63.7795 65.7038C65.5028 69.1075 66.4043 72.8379 67.2334 76.5521C67.6236 78.3 68.2632 79.8639 69.3594 81.2819C71.0697 83.4942 72.6364 85.82 74.5009 87.9102C76.1826 89.7955 78.5832 90.1772 80.6992 88.7875C83.5154 86.9381 86.2496 84.964 89.0242 83.0509C91.077 81.6355 93.1406 80.2355 95.1931 78.8195C95.52 78.594 95.7556 78.4603 96.1378 78.8055C100.079 82.3649 103.757 86.1546 106.643 90.6474C107.116 91.3841 107.544 92.1503 107.84 92.9811C108.449 94.6913 108.135 95.7984 106.646 96.8518C104.635 98.2751 102.464 99.4428 100.336 100.676C94.2696 104.189 88.1552 107.612 81.9712 110.917C78.3647 112.844 74.887 112.818 71.2291 111.149C64.8934 108.259 59.5979 103.986 54.8338 99.0077C50.1679 94.1319 45.8984 88.9146 41.8439 83.5212C41.7439 83.3881 41.6309 83.2648 41.5239 83.1369C41.4734 83.1752 41.423 83.2136 41.3725 83.252Z" fill="#1A1A1A"/>
<path d="M42.4724 38.048C42.4524 37.5765 42.6077 37.2192 42.963 36.8846C48.4373 31.7292 53.9931 26.6683 60.0594 22.2048C61.7134 20.9877 63.4107 19.8321 65.1907 18.7935C66.0766 18.2766 66.6051 18.4555 67.0699 19.2722C67.5195 20.0621 68.0091 20.8303 68.4329 21.6335C69.0924 22.8834 69.6633 24.1787 70.4836 25.3427C71.0523 26.1497 71.1583 27.0933 71.096 28.051C71.049 28.7723 71.2919 29.3517 71.7676 29.8845C72.7887 31.028 73.9795 31.9486 75.3035 32.7092C75.7703 32.9774 76.2512 33.2318 76.6801 33.5533C77.8015 34.3937 77.8258 35.1778 76.799 36.0973C75.4075 37.3434 75.4707 37.5281 76.0782 39.2187C76.404 40.1255 76.503 41.2563 76.2776 42.1821C76.0018 43.3154 75.9414 44.3304 76.3049 45.4262C76.9917 47.4964 76.4996 48.3872 74.4095 49.0891C72.9216 49.5887 71.3627 49.7884 69.832 49.7948C66.8167 49.8074 65.3462 51.5935 64.3954 54.0945C63.7999 55.6607 63.823 55.6852 62.3199 54.9745C57.9966 52.9306 53.6941 50.8416 49.3466 48.8507C48.4357 48.4335 47.8244 48.043 47.6237 46.9631C47.3882 45.6961 46.3613 44.8471 45.5224 43.9279C44.2891 42.5766 43.0931 41.2027 42.6912 39.3413C42.5991 38.9143 42.5444 38.4793 42.4724 38.048Z" fill="#1A1A1A"/>
<path d="M77.0242 165.034C97.4979 165.034 117.972 165.034 138.445 165.034C138.918 165.034 139.392 165.015 139.862 165.049C140.907 165.126 141.742 165.951 141.788 166.919C141.833 167.868 141.154 168.64 140.002 168.719C138.525 168.821 137.038 168.809 135.556 168.81C103.917 168.818 72.2795 168.822 40.6414 168.823C32.0744 168.823 23.5074 168.81 14.9405 168.805C13.2874 168.804 12.5942 168.432 12.3679 167.414C12.0814 166.125 12.8908 165.091 14.288 165.051C15.8046 165.009 17.3233 165.035 18.8412 165.035C38.2355 165.034 57.6299 165.034 77.0242 165.034Z" fill="#1A1A1A"/>
<path d="M62.0583 162.88C47.3333 162.88 32.6705 162.88 18.0078 162.88C19.9144 161.446 21.7129 159.839 24.3235 160.424C24.3235 160.217 24.3508 160.129 24.3196 160.096C22.4825 158.145 22.9798 155.919 25.4887 154.927C26.3465 154.588 27.25 154.463 28.1669 154.534C29.3827 154.628 30.511 154.368 31.56 153.767C33.3026 152.767 35.1582 152.119 37.1472 151.808C39.7989 151.393 41.895 150.016 43.5943 147.969C44.365 147.041 45.3114 146.369 46.5585 146.203C48.417 145.956 49.8614 146.663 50.9479 148.126C53.4367 151.479 55.8849 154.861 58.3829 158.206C59.5625 159.786 60.8189 161.309 62.0583 162.88Z" fill="#1A1A1A"/>
<path d="M40.6269 35.5225C36.9787 31.5079 36.3112 27.9983 38.521 23.7347C42.1769 16.6808 47.9682 12.594 55.8733 11.5787C57.4747 11.373 58.947 11.8274 60.2726 12.7228C60.9413 13.1746 61.5792 13.6757 62.2051 14.1864C62.9859 14.8233 63.7399 15.493 64.5097 16.1522C55.5216 21.4102 48.0232 28.4005 40.6269 35.5225Z" fill="#1A1A1A"/>
<path d="M120.585 59.475C120.356 63.049 119.651 66.4693 117.799 69.5987C117.064 70.8418 116.474 72.1711 115.819 73.462C115.254 74.578 114.435 75.4211 113.299 75.9867C111.973 76.6465 110.698 77.4078 109.374 78.0706C107.311 79.103 105.617 80.5612 104.258 82.406C103.938 82.8402 103.773 82.9047 103.363 82.4949C101.745 80.8758 100.101 79.2806 98.4322 77.7133C98.0246 77.3306 97.976 77.1349 98.3734 76.692C99.3463 75.6079 99.5287 74.233 99.6371 72.8352C99.7229 71.7291 99.8601 70.6236 100.041 69.529C100.248 68.2803 100.738 67.1485 101.598 66.1858C103.144 64.4545 104.044 62.3272 105.136 60.3185C105.474 59.697 105.781 59.0546 106.266 58.5286C106.766 57.9861 107.343 57.5381 108.123 57.8592C108.86 58.1633 109.091 58.8507 109.131 59.5868C109.17 60.3088 108.933 60.986 108.635 61.6282C108.126 62.7265 107.555 63.7963 107.057 64.8995C106.681 65.7338 106.236 66.7562 106.902 67.4707C107.544 68.1604 108.502 67.558 109.253 67.2535C112.983 65.74 115.586 63.1295 116.861 59.2647C117.104 58.528 117.37 57.7981 117.783 57.138C118.114 56.6086 118.529 56.1419 119.234 56.2338C119.989 56.3322 120.304 56.9317 120.438 57.5674C120.568 58.1862 120.542 58.8377 120.585 59.475Z" fill="#1A1A1A"/>
</g>
<defs>
<filter id="filter0_di_8553_2351" x="0.0153694" y="0.930494" width="154.069" height="181.884" filterUnits="userSpaceOnUse" color-interpolation-filters="sRGB">
<feFlood flood-opacity="0" result="BackgroundImageFix"/>
<feColorMatrix in="SourceAlpha" type="matrix" values="0 0 0 0 0 0 0 0 0 0 0 0 0 0 0 0 0 0 127 0" result="hardAlpha"/>
<feOffset dy="1.69589"/>
<feGaussianBlur stdDeviation="6.14759"/>
<feComposite in2="hardAlpha" operator="out"/>
<feColorMatrix type="matrix" values="0 0 0 0 1 0 0 0 0 0.879395 0 0 0 0 0.879395 0 0 0 0.25 0"/>
<feBlend mode="normal" in2="BackgroundImageFix" result="effect1_dropShadow_8553_2351"/>
<feBlend mode="normal" in="SourceGraphic" in2="effect1_dropShadow_8553_2351" result="shape"/>
<feColorMatrix in="SourceAlpha" type="matrix" values="0 0 0 0 0 0 0 0 0 0 0 0 0 0 0 0 0 0 127 0" result="hardAlpha"/>
<feOffset dy="1.69589"/>
<feGaussianBlur stdDeviation="0.847943"/>
<feComposite in2="hardAlpha" operator="arithmetic" k2="-1" k3="1"/>
<feColorMatrix type="matrix" values="0 0 0 0 0 0 0 0 0 0 0 0 0 0 0 0 0 0 0.25 0"/>
<feBlend mode="normal" in2="shape" result="effect2_innerShadow_8553_2351"/>
</filter>
</defs>
</svg>
