<svg width="100%" height="100%" viewBox="0 0 892 154" fill="none" xmlns="http://www.w3.org/2000/svg">
<g clip-path="url(#clip0_9067_5254)">
<path fill-rule="evenodd" clip-rule="evenodd" d="M661.794 86.3522C659.621 84.8507 657.151 83.9129 655.045 83.8053C654.671 83.6926 654.251 83.6157 653.779 83.5901C652.534 83.5132 646.713 84.1641 643.817 89.7292C642.439 92.3837 641.599 96.4217 643.172 102.53C641.168 107.87 631.58 126.072 613.481 135.188C611.252 136.31 598.348 141.01 599.322 142.27C600.844 144.233 607.767 145.34 616.796 142.644C637.14 136.577 647.225 115.367 650.812 107.629C651.007 107.204 651.186 106.804 651.34 106.425C653.498 107.321 656.203 107.737 659.386 105.518C664.474 101.972 664.997 96.8009 664.843 96.8983C677.967 99.4708 772.564 96.0886 784.709 96.1348C787.917 96.145 790.182 94.787 792.14 92.9422C792.683 92.4349 793.195 91.8815 793.728 91.3588C793.954 91.1333 794.143 90.8566 794.389 90.6619C794.84 91.0718 795.501 91.6714 795.978 92.0916C798.34 94.1824 801.379 96.0835 805.965 95.7761C808.097 95.6326 810.511 94.6845 812.73 93.3932C813.954 92.6809 815.353 91.7329 816.378 91.0103C816.952 91.4715 817.521 91.984 818.141 92.481C820.411 94.3053 823.189 95.9913 827.816 96.145C830.296 96.227 832.858 95.1816 835.042 93.5828C835.8 93.0293 836.563 92.3478 837.255 91.6816C844.706 95.6736 856.713 97.5594 866.05 97.3954C868.637 97.3493 874.238 97.6465 878.558 96.7958C881.197 96.2783 883.437 95.2995 884.928 93.9723C887.521 91.6611 888.746 88.4225 889.063 84.9891C889.407 81.2892 888.177 75.3295 888.059 73.3105C887.916 70.8405 879.312 73.4027 879.455 75.8727C879.542 77.3844 882.699 86.8083 881.484 87.8895C880.736 88.5557 867.874 88.3866 865.891 88.4225C860.29 88.5198 853.515 87.8639 847.812 86.2804C846.402 85.891 843.63 85.6245 841.719 84.6765C839.095 83.3749 838.285 81.4225 836.456 81.3712C835.708 81.3507 834.442 83.5645 832.536 85.1121C830.865 86.4649 828.513 87.1977 828.118 87.1824C824.803 87.0696 822.83 85.6553 821.328 84.451C819.868 83.2826 819.043 81.3866 817.875 81.1355C817.239 81.0023 815.456 81.9093 813.391 83.2878C812.458 83.9078 810.521 84.8405 808.861 85.8602C807.8 86.511 806.391 86.757 805.35 86.8236C803.823 86.9261 801.574 86.0089 799.437 84.2665C797.561 82.7395 797.771 81.1457 796.377 81.1048C794.799 81.0586 790.981 84.7892 790.32 85.0557C784.345 87.4642 673.468 89.0374 661.789 86.3522H661.794ZM654.297 93.9979C653.759 94.5821 652.959 97.2468 654.845 98.0974C656.024 98.6304 657.546 97.8976 658.268 96.6677C658.812 95.7351 658.407 94.951 657.925 94.4078C656.818 93.1575 655.148 93.0755 654.302 93.9979H654.297Z" fill="currentColor"/>
<path fill-rule="evenodd" clip-rule="evenodd" d="M301.873 89.371C295.227 90.4317 282.416 91.0723 271.065 90.4471C265.054 90.1192 259.458 89.4376 255.456 88.1821C253.842 87.6748 252.494 87.311 251.946 86.4859C250.941 84.9742 249.732 84.4464 248.702 84.2312C247.4 83.9596 245.996 84.1287 244.608 85.1741C243.977 85.6455 243.147 86.6448 242.322 87.9515C242.009 88.4486 241.282 89.371 241.005 89.7143C231.878 93.2758 69.9662 92.0613 56.8066 86.9932C56.0021 86.7626 55.218 86.6192 54.475 86.5833C54.1009 86.4705 53.6807 86.3937 53.2092 86.368C51.964 86.2912 46.1426 86.942 43.2473 92.5071C41.8688 95.1616 41.0284 99.1997 42.6016 105.308C40.598 110.648 31.5174 128.624 13.4179 137.736C11.1887 138.858 -0.300284 141.466 0.83222 143.675C1.96472 145.883 9.85126 145.32 16.3132 144.044C37.1441 139.919 46.6551 118.145 50.2473 110.402C50.4472 109.976 50.6214 109.572 50.7751 109.197C52.9325 110.094 57.4369 109.812 59.5226 108.424C62.1975 106.646 65.7334 103.632 66.2612 100.747C66.4764 99.5584 66.5789 98.062 66.3227 96.8681C90.7305 99.1997 236.383 98.5438 241.118 98.6975C243.613 98.7795 245.694 97.7597 247.37 96.1301C247.703 95.8022 248.061 95.3871 248.415 94.9361C249.004 95.2641 249.64 95.5767 250.326 95.8637C254.974 97.8058 262.43 98.9486 270.558 99.3944C283.881 100.127 306.49 99.4661 313.06 98.1235C315.812 97.5599 321.7 95.9354 321.715 95.0335C321.812 88.4486 286.008 66.4339 284.343 66.3161C282.426 66.1828 281.57 68.2685 280.12 71.912C277.307 78.9837 279.095 85.2407 280.812 87.0342C282.534 88.8278 285.454 77.5079 286.566 76.8622C286.956 76.6316 299.311 86.1272 301.643 89.0686L301.863 89.3556L301.873 89.371ZM54.0906 95.7099C53.5833 96.248 52.9274 96.8219 53.1887 98.5642C53.4091 100.025 54.1931 100.706 54.2803 100.875C54.5262 100.84 55.6639 102.73 58.2876 100.148C59.5943 98.8615 58.9076 97.3805 57.7393 96.5811C55.5101 95.0642 54.0906 95.7099 54.0906 95.7099Z" fill="currentColor"/>
<path fill-rule="evenodd" clip-rule="evenodd" d="M609.089 86.2648C609.31 99.0759 604.241 93.9873 602.34 89.0986C600.993 85.6294 600.342 81.1711 599.717 76.9793C599.722 71.0452 597.226 58.5108 595.75 57.7985C594.274 57.0862 589.473 60.2736 589.186 61.9339C589.16 62.0876 595.007 87.7048 587.618 91.9324C585.389 93.2084 581.602 93.9156 577.502 93.3775C575.258 93.0854 574.156 91.8197 573.362 89.8161C572.736 88.2326 571.481 79.603 571.378 77.5379C571.107 72.0701 571.045 67.248 570.43 65.3724C569.631 62.9434 563.994 61.4215 562.185 62.2209C560.345 63.0305 558.357 65.9156 551.137 77.5789C549.251 80.6228 546.858 84.6865 548.057 87.2589C549.851 91.1023 553.115 92.655 557.153 92.5986C559.331 92.5679 561.832 91.9273 564.261 91.0664C564.799 92.8651 565.47 94.5203 566.31 95.9346C568.785 100.096 572.506 102.627 577.974 102.34C583.713 102.038 587.971 100.362 591.138 97.9639C592.506 96.9288 593.68 95.7502 594.679 94.4588C595.591 96.6572 596.642 98.4507 597.754 99.6755C599.578 101.679 601.695 102.561 603.893 102.499C609.791 102.335 613.614 98.5532 615.551 92.5423C618.754 82.5957 616.069 54.1191 615.172 53.5811C615.172 53.5811 606.63 56.1894 607.624 61.6521C608.239 65.024 608.936 77.4661 609.089 86.2648ZM562.113 73.7458C560.53 75.2677 558.834 77.1023 557.834 78.7831C557.143 79.9412 556.584 81.1096 556.328 82.2165C556.22 82.6828 556.092 83.1235 556.266 83.4925C556.338 83.6411 556.507 83.6103 556.656 83.6206C557.086 83.6565 557.553 83.6103 558.034 83.5335C559.52 83.2926 561.109 82.7443 562.631 82.1191C562.493 80.7253 562.395 79.3365 562.329 77.9837C562.262 76.6052 562.185 75.1242 562.113 73.7458Z" fill="currentColor"/>
<path fill-rule="evenodd" clip-rule="evenodd" d="M538.489 99.3528C539.021 91.6507 538.857 55.5029 538.699 54.9648C538.653 54.8059 530.356 54.8521 530.418 60.8374C530.464 65.2445 530.756 91.8096 530.233 99.3579C530.064 101.828 538.319 101.823 538.489 99.3579V99.3528Z" fill="currentColor"/>
<path fill-rule="evenodd" clip-rule="evenodd" d="M516.337 60.1609C516.337 60.1609 516.368 60.4171 516.398 60.6734C516.849 64.4193 522.44 88.5299 520.703 91.3586C520.108 92.322 517.193 92.1221 516.706 92.158C515.855 92.2246 514.948 92.2092 514.015 92.2041C510.085 92.1734 505.909 92.445 502.475 94.9713C500.928 96.109 499.477 98.0716 498.329 100.782C496.459 105.215 497.043 111.964 495.67 118.908C494.604 124.273 494.42 131.027 491.447 135.424C485.58 144.089 479.097 142.987 480.343 145.135C481.075 146.395 488.516 146.124 491.786 144.632C494.789 143.264 496.808 141.045 498.37 137.187C500.179 132.723 501.476 126.748 502.66 120.788C503.741 115.326 504.725 109.883 506.073 105.881C506.636 104.2 507.036 102.786 507.871 102.176C509.398 101.049 511.305 101.172 513.078 101.172C515.174 101.172 517.203 101.223 518.961 100.916C521.282 100.511 523.245 99.568 524.772 97.8615C526.104 96.3754 527.185 94.1975 527.488 90.8154C528.097 84.0767 525.914 53.8117 525.766 53.6785C524.213 52.2846 517.367 56.1024 516.665 57.6909C516.306 58.5006 516.209 59.3513 516.337 60.1661V60.1609Z" fill="currentColor"/>
<path fill-rule="evenodd" clip-rule="evenodd" d="M464.6 82.4679C467.992 83.8874 482.889 90.7849 483.171 91.1077C477.083 93.1985 460.495 94.6743 451.65 92.8705C442.78 91.0616 438.69 92.4042 436.512 93.7827C435.892 94.1721 435.308 94.7102 434.806 95.2483C426.955 96.0528 419.33 97.9745 415.133 98.2102C414.267 98.2615 410.531 103.494 409.599 105.302C407.103 110.135 403.48 128.578 390.044 129.444C379.882 130.1 365.462 122.956 361.403 117.76C356.96 112.077 355.618 119.456 358.226 125.165C361.777 132.939 379.769 141.599 392.094 138.652C414.39 133.313 416.865 109.212 418.034 106.906C421.144 106.471 425.275 105.6 429.748 104.872C429.343 110.827 433.228 116.884 440.627 116.694C450.866 116.433 453.049 107.598 452.552 102.141C467.228 104.539 479.927 99.6656 482.643 99.2761C488.259 98.4767 494.496 97.1802 495.208 94.7102C497.724 85.9884 464.169 71.1941 461.556 71.189C456.549 71.1787 456.826 75.8676 457.794 84.1948C458.466 89.9752 460.269 90.4467 461.556 91.241C461.868 91.4306 463.175 81.8581 464.605 82.4525L464.6 82.4679ZM439.372 103.821C438.188 105.22 438.301 107.793 440.392 107.737C442.687 107.68 443.292 105.466 443.43 103.903C442.113 103.796 440.75 103.775 439.372 103.816V103.821Z" fill="currentColor"/>
<path fill-rule="evenodd" clip-rule="evenodd" d="M369.356 66.9622C369.397 66.0603 369.166 65.1379 368.633 64.3231C368.577 64.2411 360.044 61.9659 360.352 67.7975C360.603 72.5786 362.084 97.094 363.022 103.874C363.36 106.323 365.645 108.045 368.121 107.707C370.596 107.369 372.328 105.109 371.99 102.654C371.072 96.0179 369.632 72.0149 369.391 67.3312C369.386 67.1979 369.371 67.075 369.356 66.9571V66.9622Z" fill="currentColor"/>
<path fill-rule="evenodd" clip-rule="evenodd" d="M351.566 98.6711L350.392 98.7992C344.663 99.3578 337.94 100.06 333 103.257C332.231 103.755 331.114 104.918 330.289 106.983C328.911 110.427 327.235 118.482 324.545 126.236C323.048 130.54 321.255 134.763 318.887 137.791C317.299 139.82 315.51 140.712 313.138 141.086C305.969 142.219 294.326 141.512 294.054 143.971C293.783 146.431 309.479 149.562 311.959 149.834C316.54 150.331 320.666 148.824 323.986 145.596C326.646 143.003 328.911 139.303 330.771 135.132C334.65 126.43 338.16 112.809 338.796 110.278C342.465 108.305 347.241 108.121 351.284 107.726C352.55 107.603 355.445 107.388 357.193 106.496C359.176 105.481 360.354 103.867 360.595 101.807C360.913 99.0964 360.201 96.0064 359.832 93.3468C359.078 87.9815 358.264 82.6264 357.551 77.256C357.239 74.9244 356.901 72.5928 356.66 70.2509C356.573 69.4105 356.47 68.5701 356.388 67.7245C356.373 67.5554 356.306 67.2633 356.224 66.9661C356.337 64.6806 354.676 62.6411 352.35 62.308C350.808 62.0876 349.737 62.5642 348.963 63.1074C348.204 63.6403 347.62 64.3629 347.277 65.316C347.031 65.9976 347.497 69.2055 347.497 69.2055C347.497 69.2055 347.395 68.7597 347.379 68.5906C347.461 69.4515 347.564 70.3073 347.656 71.163C347.907 73.592 348.256 76.0056 348.578 78.4244C349.296 83.8153 350.111 89.1909 350.869 94.5767C351.048 95.868 351.417 97.2824 351.576 98.6711H351.566ZM351.627 71.2348H351.725H351.53H351.627ZM351.925 71.2297H351.756L351.812 71.2348H351.925V71.2297ZM351.443 71.2297H351.499L351.31 71.2194L351.443 71.2297ZM351.274 71.2143L351.054 71.1887C351.13 71.1989 351.202 71.2092 351.274 71.2143Z" fill="currentColor"/>
<path fill-rule="evenodd" clip-rule="evenodd" d="M376.15 150.096C375.77 150.106 374.013 150.998 373.977 151.285C373.92 151.715 374.464 153.294 374.561 153.555C374.628 153.734 374.725 153.883 374.868 153.975C374.991 154.052 375.56 153.95 375.56 153.95C375.56 153.95 375.535 153.96 375.524 153.965C376.288 153.642 377.051 153.284 377.815 152.956C379.583 152.187 381.356 151.413 383.129 150.614C388.11 148.364 393.111 145.863 398.098 143.516C398.748 143.209 399.271 143.511 399.363 142.476C399.461 141.441 399.092 139.463 398.441 139.77C393.465 142.112 388.474 144.613 383.503 146.852C381.74 147.647 379.977 148.415 378.215 149.184C377.528 149.481 376.831 149.804 376.144 150.101L376.15 150.096Z" fill="currentColor"/>
<path fill-rule="evenodd" clip-rule="evenodd" d="M62.4991 131.893C62.1045 131.852 60.1931 132.498 60.1264 132.785C60.024 133.21 60.4134 134.86 60.4852 135.132C60.5313 135.321 60.6184 135.485 60.7619 135.593C60.8797 135.685 61.4793 135.66 61.4793 135.66C61.4793 135.66 61.4537 135.67 61.4434 135.67C62.2633 135.455 63.0935 135.198 63.9185 134.973C65.8248 134.45 67.7363 133.917 69.6528 133.364C75.0335 131.801 80.4654 129.992 85.8614 128.327C86.5635 128.111 87.0708 128.48 87.2809 127.461C87.491 126.441 87.3219 124.411 86.6199 124.627C81.2341 126.287 75.8175 128.096 70.442 129.654C68.5357 130.207 66.6345 130.735 64.7333 131.258C63.9903 131.463 63.2421 131.688 62.4991 131.888V131.893Z" fill="currentColor"/>
<path fill-rule="evenodd" clip-rule="evenodd" d="M266.106 117.766L259.967 110.361L253.121 117.223L259.255 124.623L266.106 117.766Z" fill="currentColor"/>
<path fill-rule="evenodd" clip-rule="evenodd" d="M251.134 117.766L244.995 110.361L238.148 117.223L244.288 124.623L251.134 117.766Z" fill="currentColor"/>
<path fill-rule="evenodd" clip-rule="evenodd" d="M317.413 62.4928C317.003 62.4569 315.051 63.1282 314.995 63.4152C314.908 63.8405 315.399 65.5008 315.487 65.7827C315.548 65.9723 315.645 66.1362 315.794 66.2439C315.922 66.3361 316.542 66.3053 316.542 66.3053C316.542 66.3053 316.517 66.3156 316.506 66.3156C317.347 66.0901 318.197 65.8236 319.043 65.5828C321.001 65.0345 322.958 64.4759 324.921 63.8917C330.435 62.257 335.984 60.3661 341.514 58.6238C342.236 58.3983 342.779 58.7673 342.943 57.7321C343.107 56.7021 342.836 54.6575 342.113 54.8829C336.599 56.6201 331.06 58.5059 325.556 60.1406C323.604 60.7197 321.656 61.2731 319.709 61.8215C318.946 62.0367 318.182 62.2724 317.419 62.4825L317.413 62.4928Z" fill="currentColor"/>
<path fill-rule="evenodd" clip-rule="evenodd" d="M296.472 126.369C296.072 126.323 294.135 126.943 294.064 127.23C293.961 127.655 294.361 129.316 294.433 129.592C294.484 129.782 294.571 129.946 294.714 130.059C294.832 130.151 295.442 130.136 295.442 130.136C295.442 130.136 295.416 130.141 295.401 130.146C296.236 129.941 297.077 129.695 297.917 129.48C299.854 128.977 301.796 128.475 303.739 127.942C309.206 126.451 314.715 124.704 320.198 123.11C320.916 122.9 321.428 123.279 321.638 122.259C321.848 121.24 321.674 119.2 320.962 119.405C315.489 120.994 309.99 122.736 304.538 124.227C302.601 124.755 300.674 125.257 298.742 125.754C297.989 125.949 297.225 126.169 296.472 126.359V126.369Z" fill="currentColor"/>
<path fill-rule="evenodd" clip-rule="evenodd" d="M393.165 110.72L387.031 103.32L380.18 110.176L386.319 117.576L393.165 110.72Z" fill="currentColor"/>
<path fill-rule="evenodd" clip-rule="evenodd" d="M493.739 61.3765C493.57 60.6385 492.458 60.6283 491.93 61.0178C491.813 61.1049 489.65 62.263 489.927 63.8567C490.009 64.3384 491.351 61.9402 491.679 66.0192C491.807 67.5719 491.613 71.4511 493.012 72.6554C494.308 73.7725 495.799 74.1978 497.306 73.5368C498.356 73.0756 499.135 72.271 499.673 71.2615C500.939 72.4965 502.087 72.8552 503.025 72.7989C504.239 72.7271 505.295 71.9841 506.1 70.662C507.432 68.4738 505.372 63.5954 505.305 61.0741C505.295 60.6949 506.679 61.2432 506.033 60.0031C505.485 58.9424 505.213 58.8501 504.157 59.0243C503.102 59.1986 502.656 59.7059 502.81 60.9306C502.969 62.2271 504.537 67.8896 502.753 68.2893C501.062 68.6634 500.447 66.2037 500.201 65.2711C499.873 64.0309 499.356 59.091 497.542 59.7879C496.814 60.0697 497.111 64.6254 497.183 65.2762C497.275 66.1063 497.496 68.9863 495.928 69.3399C494.964 69.5551 493.847 66.8391 493.75 66.0346C493.473 63.7491 493.821 61.7044 493.75 61.3816L493.739 61.3765Z" fill="currentColor"/>
<path fill-rule="evenodd" clip-rule="evenodd" d="M486.435 48.0118C486.056 47.9913 484.231 48.7293 484.17 49.0111C484.078 49.4364 484.477 51.0506 484.549 51.3222C484.6 51.5067 484.682 51.6656 484.821 51.7681C484.934 51.8552 485.513 51.7988 485.513 51.7988C485.513 51.7988 485.487 51.8091 485.477 51.8091C486.261 51.5528 487.055 51.2607 487.844 50.9943C489.669 50.3793 491.493 49.7542 493.327 49.1085C498.472 47.2893 503.658 45.219 508.819 43.2973C509.495 43.0462 509.982 43.3896 510.166 42.3647C510.351 41.3449 510.166 39.3413 509.49 39.5924C504.34 41.5089 499.164 43.5792 494.035 45.3932C492.21 46.0389 490.396 46.6539 488.577 47.2688C487.865 47.5096 487.152 47.771 486.44 48.0067L486.435 48.0118Z" fill="currentColor"/>
<path fill-rule="evenodd" clip-rule="evenodd" d="M884.144 109.208L879.727 103.786L875.141 108.306L879.558 113.722L884.144 109.208Z" fill="currentColor"/>
<path fill-rule="evenodd" clip-rule="evenodd" d="M864.502 127.978C864.062 127.958 862.043 128.701 862.007 128.993C861.955 129.428 862.622 131.089 862.739 131.365C862.821 131.555 862.939 131.719 863.108 131.821C863.252 131.909 863.913 131.857 863.913 131.857C863.913 131.857 863.887 131.868 863.872 131.873C864.748 131.616 865.63 131.319 866.506 131.053C868.54 130.433 870.575 129.808 872.609 129.152C878.333 127.317 884.067 125.226 889.791 123.284C890.54 123.033 891.149 123.387 891.231 122.336C891.319 121.291 890.842 119.236 890.094 119.487C884.38 121.424 878.656 123.51 872.947 125.339C870.923 125.99 868.899 126.61 866.875 127.23C866.081 127.471 865.286 127.737 864.497 127.973L864.502 127.978Z" fill="currentColor"/>
<path fill-rule="evenodd" clip-rule="evenodd" d="M721.929 122.977C721.509 123.059 719.767 124.253 719.797 124.546C719.843 124.981 720.848 126.436 721.017 126.677C721.135 126.841 721.283 126.975 721.468 127.036C721.622 127.087 722.237 126.882 722.237 126.882C722.237 126.882 722.211 126.898 722.201 126.903C722.969 126.447 723.738 125.955 724.507 125.488C726.29 124.412 728.068 123.326 729.846 122.219C734.843 119.098 739.793 115.731 744.769 112.508C745.42 112.088 746.075 112.288 745.922 111.253C745.768 110.218 744.861 108.332 744.21 108.752C739.245 111.965 734.305 115.332 729.318 118.442C727.551 119.549 725.777 120.625 724.004 121.696C723.308 122.117 722.616 122.557 721.924 122.977H721.929Z" fill="currentColor"/>
<path fill-rule="evenodd" clip-rule="evenodd" d="M814.811 68.5457C817.04 68.3202 819.94 67.1467 820.468 68.5969C821.416 71.2001 818.669 72.0252 816.215 72.143C814.785 72.2148 811.813 69.9703 811.895 70.826C812.013 72.0969 814.954 73.9776 816.353 74.2492C819.966 74.9666 823.66 73.7623 824.778 70.7389C825.305 69.3143 825.92 66.5164 823.307 64.0925C822.103 62.9805 819.955 62.4937 818.234 62.2784C816.707 62.0837 815.82 62.3963 815.097 62.7192C813.289 63.5186 812.166 64.8253 811.936 65.6298C811.582 66.87 812.084 68.8172 814.816 68.5405L814.811 68.5457Z" fill="currentColor"/>
<path fill-rule="evenodd" clip-rule="evenodd" d="M247.623 72.6396C249.852 72.4141 252.753 71.2406 253.28 72.6908C254.228 75.294 251.482 76.1191 249.027 76.2421C247.597 76.3138 244.625 74.0693 244.707 74.9251C244.825 76.1959 247.766 78.0715 249.165 78.3482C252.778 79.0656 256.468 77.8614 257.59 74.838C258.118 73.4134 258.733 70.6154 256.119 68.1916C254.915 67.0795 252.763 66.5927 251.046 66.3775C249.519 66.1879 248.633 66.4954 247.91 66.8182C246.101 67.6176 244.979 68.9243 244.748 69.7289C244.395 70.969 244.897 72.9163 247.628 72.6396H247.623Z" fill="currentColor"/>
<path fill-rule="evenodd" clip-rule="evenodd" d="M461.589 53.0483C463.818 52.8228 466.719 51.6493 467.246 53.0995C468.194 55.7027 465.448 56.5278 462.988 56.6508C461.558 56.7225 458.586 54.478 458.668 55.3338C458.786 56.6046 461.727 58.4853 463.126 58.762C466.739 59.4795 470.434 58.2752 471.551 55.2518C472.079 53.8272 472.694 51.0292 470.08 48.6105C468.876 47.4934 466.724 47.0117 465.007 46.7964C463.48 46.6068 462.593 46.9143 461.871 47.2371C460.062 48.0366 458.94 49.3433 458.709 50.1478C458.356 51.3879 458.858 53.3352 461.589 53.0585V53.0483Z" fill="currentColor"/>
<path fill-rule="evenodd" clip-rule="evenodd" d="M590.84 29.496C590.783 28.6248 589.471 28.3379 588.759 28.6453C588.605 28.712 585.802 29.4806 585.813 31.3408C585.813 31.8994 587.883 29.537 587.463 34.2054C587.304 35.9835 586.299 40.2983 587.719 41.9894C589.036 43.5677 590.722 44.4133 592.643 44.0443C593.986 43.7881 595.067 43.0758 595.908 42.0714C597.163 43.7727 598.455 44.4594 599.582 44.6285C601.037 44.8488 602.441 44.2749 603.661 42.9887C605.68 40.8569 604.204 34.8664 604.635 32.0172C604.701 31.5868 606.228 32.5502 605.711 30.9975C605.27 29.6651 604.968 29.5011 603.676 29.4294C602.39 29.3628 601.76 29.824 601.693 31.2383C601.627 32.7346 602.354 39.4887 600.156 39.4938C598.075 39.4938 597.834 36.578 597.727 35.4711C597.583 34.0004 597.952 28.3174 595.657 28.6505C594.734 28.7837 594.181 33.9799 594.14 34.7281C594.083 35.6863 593.776 38.9711 591.839 38.9813C590.65 38.9865 589.866 35.6556 589.912 34.7281C590.035 32.089 590.86 29.8803 590.835 29.496H590.84Z" fill="currentColor"/>
<path fill-rule="evenodd" clip-rule="evenodd" d="M545.678 121.204C545.247 121.225 543.331 122.147 543.321 122.445C543.305 122.88 544.099 124.474 544.238 124.735C544.335 124.914 544.463 125.068 544.637 125.155C544.786 125.227 545.427 125.119 545.427 125.119C545.427 125.119 545.401 125.13 545.391 125.135C546.226 124.797 547.066 124.423 547.902 124.074C549.844 123.27 551.786 122.46 553.723 121.619C559.181 119.267 564.623 116.659 570.075 114.199C570.788 113.876 571.413 114.174 571.408 113.128C571.408 112.078 570.767 110.079 570.055 110.402C564.618 112.852 559.181 115.46 553.739 117.807C551.807 118.642 549.875 119.447 547.943 120.246C547.19 120.559 546.431 120.897 545.673 121.204H545.678Z" fill="currentColor"/>
<path fill-rule="evenodd" clip-rule="evenodd" d="M599.725 7.42064C599.592 6.14978 598.844 0.789604 597.317 0.17467C596.481 -0.163544 595.82 0.041434 595.303 0.379648C594.862 0.666617 594.426 1.13807 594.237 1.94773C594.185 2.17321 594.129 2.51654 594.18 2.96237C594.206 3.18272 594.457 4.00776 594.457 4.00776C594.457 4.00776 594.442 3.95651 594.437 3.94114C594.513 4.20761 594.575 4.47408 594.631 4.74568C594.847 5.81669 595.267 6.79546 595.482 7.86647C595.877 9.83938 596.112 10.8438 596.671 16.0502C596.876 17.9514 597.045 20.406 597.578 20.2523C598.229 20.0627 599.059 17.7054 599.248 16.3013C599.817 12.1095 600.089 10.9258 599.725 7.41552V7.42064Z" fill="currentColor"/>
<path fill-rule="evenodd" clip-rule="evenodd" d="M440.877 63.2756C440.744 62.0048 439.996 56.6446 438.469 56.0297C437.634 55.6914 436.973 55.8964 436.455 56.2346C436.014 56.5216 435.579 56.993 435.389 57.8027C435.338 58.0282 435.281 58.3715 435.333 58.8174C435.358 59.0377 435.609 59.8627 435.609 59.8627C435.609 59.8627 435.594 59.8115 435.589 59.7961C435.666 60.0626 435.727 60.3291 435.784 60.6007C435.999 61.6717 436.419 62.6504 436.634 63.7215C437.029 65.6944 437.265 66.6988 437.823 71.9052C438.028 73.8064 438.197 76.261 438.73 76.1072C439.381 75.9176 440.211 73.5604 440.401 72.1563C440.97 67.9645 441.241 66.7807 440.877 63.2705V63.2756Z" fill="currentColor"/>
</g>
</svg>
