<svg width="100%" height="100%" viewBox="0 0 66 66" fill="none" xmlns="http://www.w3.org/2000/svg">
<g filter="url(#filter0_i_8553_307)">
<path fill-rule="evenodd" clip-rule="evenodd" d="M35.0173 1.42139C34.3045 1.42139 33.621 1.70453 33.117 2.20854C32.613 2.71254 32.3298 3.39612 32.3298 4.10889V8.14014C32.3298 8.85291 32.613 9.53648 33.117 10.0405C33.621 10.5445 34.3045 10.8276 35.0173 10.8276C35.7301 10.8276 36.4137 10.5445 36.9177 10.0405C37.4217 9.53648 37.7048 8.85291 37.7048 8.14014V4.10889C37.7048 3.39612 37.4217 2.71254 36.9177 2.20854C36.4137 1.70453 35.7301 1.42139 35.0173 1.42139ZM12.1736 29.6401C11.4608 29.6401 10.7772 29.357 10.2732 28.853C9.76921 28.349 9.48607 27.6654 9.48607 26.9526C9.48607 26.2399 9.76921 25.5563 10.2732 25.0523C10.7772 24.5483 11.4608 24.2651 12.1736 24.2651H16.2048C16.9176 24.2651 17.6012 24.5483 18.1052 25.0523C18.6092 25.5563 18.8923 26.2399 18.8923 26.9526C18.8923 27.6654 18.6092 28.349 18.1052 28.853C17.6012 29.357 16.9176 29.6401 16.2048 29.6401H12.1736ZM57.8611 29.6401C58.5738 29.6401 59.2574 29.357 59.7614 28.853C60.2654 28.349 60.5486 27.6654 60.5486 26.9526C60.5486 26.2399 60.2654 25.5563 59.7614 25.0523C59.2574 24.5483 58.5738 24.2651 57.8611 24.2651H53.8298C53.117 24.2651 52.4335 24.5483 51.9295 25.0523C51.4255 25.5563 51.1423 26.2399 51.1423 26.9526C51.1423 27.6654 51.4255 28.349 51.9295 28.853C52.4335 29.357 53.117 29.6401 53.8298 29.6401H57.8611ZM16.9627 12.7022C16.4588 12.1981 16.1757 11.5144 16.1759 10.8016C16.176 10.0888 16.4593 9.4053 16.9634 8.90137C17.4675 8.39744 18.1511 8.11441 18.8639 8.11454C19.5767 8.11466 20.2602 8.39794 20.7642 8.90204L23.6143 11.7508C23.8639 12.0003 24.0621 12.2966 24.1973 12.6227C24.3325 12.9487 24.4021 13.2982 24.4022 13.6512C24.4024 14.0042 24.333 14.3538 24.198 14.68C24.063 15.0062 23.8651 15.3026 23.6156 15.5523C23.3661 15.802 23.0698 16.0001 22.7437 16.1353C22.4177 16.2705 22.0681 16.3401 21.7151 16.3402C21.3621 16.3404 21.0126 16.271 20.6864 16.136C20.3602 16.001 20.0638 15.8031 19.8141 15.5536L16.9627 12.7022ZM53.0692 8.90204C53.5731 9.40602 53.8561 10.0895 53.8561 10.8021C53.8561 11.5147 53.5731 12.1982 53.0692 12.7022L50.2178 15.5523C49.9699 15.8089 49.6733 16.0137 49.3455 16.1545C49.0176 16.2954 48.6649 16.3695 48.3081 16.3726C47.9512 16.3757 47.5973 16.3077 47.2671 16.1726C46.9368 16.0375 46.6367 15.8379 46.3844 15.5856C46.132 15.3332 45.9325 15.0332 45.7974 14.7029C45.6622 14.3726 45.5942 14.0187 45.5973 13.6619C45.6004 13.305 45.6746 12.9524 45.8154 12.6245C45.9563 12.2966 46.161 12 46.4177 11.7521L49.2678 8.90204C49.5174 8.65237 49.8137 8.45431 50.1398 8.31919C50.4659 8.18406 50.8155 8.11451 51.1685 8.11451C51.5215 8.11451 51.8711 8.18406 52.1972 8.31919C52.5234 8.45431 52.8197 8.65237 53.0692 8.90204ZM34.4113 14.2408C34.8058 13.8801 35.3274 13.691 35.8614 13.7149C36.3954 13.7389 36.898 13.9739 37.2587 14.3684L37.2627 14.3724L37.2668 14.3778L37.2802 14.3913L37.3205 14.4369L37.4549 14.5942C37.5713 14.7285 37.7362 14.9288 37.9494 15.1948C38.378 15.7323 39.0042 16.5493 39.8279 17.713C41.474 20.0377 43.9156 23.7478 47.146 29.3445C50.3777 34.9399 52.3692 38.908 53.5597 41.4987C54.0009 42.4484 54.415 43.4105 54.8013 44.3838C54.9214 44.6891 55.0352 44.9969 55.1427 45.3069L55.1615 45.3647L55.1682 45.3835L55.1709 45.3929V45.3956C55.3258 45.9003 55.2766 46.4456 55.0338 46.9143C54.791 47.3831 54.374 47.7379 53.8724 47.9025C53.3708 48.067 52.8246 48.0282 52.3513 47.7944C51.878 47.5606 51.5153 47.1504 51.3412 46.652C49.6682 47.2137 47.9684 47.7673 46.2591 48.3089C45.7243 47.0063 45.1612 45.7155 44.57 44.4375C42.9145 40.8692 41.1 37.3769 39.1319 33.971C37.1672 30.5639 35.051 27.2464 32.7894 24.0286C31.9788 22.8791 31.1432 21.7474 30.2833 20.6343C31.6069 19.4249 32.9358 18.229 34.2594 17.0613C33.9101 16.665 33.7303 16.1475 33.7587 15.62C33.7871 15.0925 34.0214 14.5972 34.4113 14.2408ZM42.2185 49.0842C42.2794 49.2266 42.339 49.3691 42.3972 49.5115C39.6559 50.3514 36.9281 51.1563 34.2917 51.9114L34.6639 53.2982C35.2719 55.5671 34.9537 57.9846 33.7792 60.0189C32.6048 62.0532 30.6703 63.5376 28.4014 64.1456C26.1324 64.7536 23.7149 64.4354 21.6806 63.2609C19.6463 62.0865 18.1619 60.152 17.5539 57.8831L17.1965 56.5501C15.8796 56.886 14.7509 57.1722 13.8506 57.3966C11.6347 57.9503 9.22135 57.2031 7.79966 55.2708C7.28904 54.5748 6.71794 53.7524 6.25838 52.9542C5.8013 52.1464 5.3886 51.3143 5.02213 50.4615C4.06001 48.2645 4.61901 45.8001 6.20732 44.158C9.71451 40.5299 18.1559 31.9084 27.3096 23.3783L27.5877 23.7411C28.0379 24.335 28.6923 25.2165 29.4945 26.3533C31.6861 29.4715 33.7369 32.6863 35.6408 35.988C37.548 39.2876 39.3065 42.671 40.911 46.1279C41.4955 47.3911 41.9323 48.3989 42.2198 49.0842H42.2185ZM22.3982 55.1929L22.7462 56.4909C22.8644 56.9325 23.0685 57.3465 23.3467 57.7093C23.6249 58.072 23.9719 58.3764 24.3677 58.6051C24.7636 58.8337 25.2006 58.9822 25.6538 59.0419C26.1071 59.1017 26.5676 59.0716 27.0092 58.9534C27.4508 58.8351 27.8648 58.6311 28.2276 58.3529C28.5903 58.0746 28.8947 57.7277 29.1234 57.3318C29.352 56.936 29.5005 56.4989 29.5602 56.0457C29.62 55.5925 29.5899 55.1319 29.4717 54.6903L29.1183 53.3708C26.717 54.0359 24.4528 54.6473 22.3982 55.1929Z" fill="currentColor"/>
</g>
</svg>
